<?xml version="1.0" encoding="UTF-8"?>
<svg id="Datos_visibles" data-name="Datos visibles" xmlns="http://www.w3.org/2000/svg" viewBox="0 0 65 60">
  <defs>
    <style>
      .cls-1 {
        fill: #fff;
      }
    </style>
  </defs>
  <path class="cls-1" d="M58.86,30.16c-6.78-9.14-16.88-14.81-26.36-14.81s-19.58,5.67-26.36,14.81c-.37.5-.37,1.19,0,1.69,6.78,9.14,16.88,14.81,26.36,14.81s19.58-5.67,26.36-14.81c.37-.5.37-1.19,0-1.69ZM32.5,43.82c-8.31,0-17.2-4.89-23.44-12.82,6.23-7.93,15.13-12.82,23.44-12.82s17.2,4.89,23.44,12.82c-6.23,7.93-15.13,12.82-23.44,12.82Z"/>
  <path class="cls-1" d="M32.5,21.78c-5.08,0-9.22,4.14-9.22,9.22s4.14,9.22,9.22,9.22,9.22-4.14,9.22-9.22-4.14-9.22-9.22-9.22Z"/>
</svg>