<?xml version="1.0" encoding="UTF-8"?>
<svg id="Datos_ocultos" data-name="Datos ocultos" xmlns="http://www.w3.org/2000/svg" viewBox="0 0 65 60">
  <defs>
    <style>
      .cls-1 {
        fill: #036cf8;
      }
    </style>
  </defs>
  <path class="cls-1" d="M23.28,31.01c0-5.08,4.14-9.22,9.22-9.22.79,0,1.55.1,2.28.29l5.51-5.51c-2.59-.79-5.21-1.22-7.79-1.22-9.48,0-19.58,5.67-26.36,14.81-.37.5-.37,1.19,0,1.69,2.75,3.7,6.04,6.83,9.62,9.25l7.81-7.81c-.19-.73-.29-1.5-.29-2.28Z"/>
  <g>
    <rect class="cls-1" x="8.56" y="29.88" width="47.43" height="2.73" rx="1.36" ry="1.36" transform="translate(-12.64 31.97) rotate(-45)"/>
    <path class="cls-1" d="M58.86,30.17c-2.75-3.7-6.04-6.83-9.62-9.25l-7.81,7.81c.19.73.29,1.5.29,2.28,0,5.08-4.14,9.22-9.22,9.22-.79,0-1.55-.1-2.28-.29l-5.51,5.51c2.59.79,5.21,1.22,7.79,1.22,9.48,0,19.58-5.67,26.36-14.81.37-.5.37-1.19,0-1.69Z"/>
  </g>
</svg>