<?xml version="1.0" encoding="UTF-8"?>
<svg id="Capa_1" data-name="Capa 1" xmlns="http://www.w3.org/2000/svg" xmlns:xlink="http://www.w3.org/1999/xlink" viewBox="0 0 267.48 60">
  <defs>
    <style>
      .cls-1 {
        fill: #e32e35;
      }

      .cls-2 {
        fill: none;
      }

      .cls-3 {
        fill: #2B80FF;
      }

      .cls-4 {
        fill: url(#textGrad);
      }
    </style>
    <linearGradient id="textGrad" x1="69.89" y1="30" x2="256.26" y2="30" gradientUnits="userSpaceOnUse">
      <stop offset="0" stop-color="#2B80FF"/>
      <stop offset="1" stop-color="#60DFFF"/>
    </linearGradient>
  </defs>
  <path class="cls-4" d="M69.89,17.29h21.1v3.91h-8.24v20.96h-4.62v-20.96h-8.24v-3.91ZM96.29,14.74c-.83,0-1.51.25-2.04.76-.53.51-.8,1.14-.8,1.9s.27,1.36.8,1.88c.53.52,1.21.78,2.04.78s1.54-.27,2.06-.8c.52-.53.78-1.19.78-1.97,0-.73-.27-1.34-.8-1.83-.53-.49-1.21-.73-2.04-.73ZM94.05,42.16h4.44v-18.97h-4.44v18.97ZM123.29,23.19h-5.33l-9.2,8.51v-15.9h-4.44v26.36h4.44v-5l3.3-3.12,6.57,8.12h5.4l-8.66-11.02,7.92-7.95ZM132.72,23.44c.79-.78,1.73-1.39,2.81-1.81,1.08-.43,2.27-.64,3.57-.64s2.51.24,3.62.73c1.11.49,2.12,1.21,3.02,2.18l2.98-2.81c-1.16-1.37-2.58-2.41-4.26-3.11-1.68-.7-3.54-1.05-5.58-1.05-1.92,0-3.68.31-5.29.94-1.61.63-3.02,1.52-4.23,2.66-1.21,1.15-2.14,2.5-2.81,4.07-.66,1.56-.99,3.27-.99,5.12s.33,3.55.99,5.12c.66,1.56,1.59,2.92,2.79,4.07,1.2,1.15,2.61,2.04,4.23,2.66,1.62.63,3.38.94,5.28.94,2.06,0,3.93-.36,5.61-1.07,1.68-.71,3.1-1.74,4.26-3.09l-2.98-2.84c-.9.99-1.91,1.74-3.02,2.22-1.11.49-2.32.73-3.62.73s-2.49-.21-3.57-.64c-1.08-.43-2.01-1.03-2.81-1.81-.79-.78-1.41-1.71-1.85-2.77-.44-1.07-.66-2.24-.66-3.52s.22-2.45.66-3.52c.44-1.07,1.05-1.99,1.85-2.77ZM169.38,27.63c.86,1.45,1.3,3.13,1.3,5.04s-.43,3.54-1.3,5.01c-.87,1.47-2.06,2.62-3.59,3.46-1.53.84-3.27,1.26-5.24,1.26s-3.67-.42-5.19-1.26c-1.52-.84-2.71-1.99-3.59-3.46-.88-1.47-1.31-3.14-1.31-5.01s.44-3.57,1.31-5.03c.88-1.46,2.07-2.6,3.59-3.43,1.52-.83,3.24-1.24,5.19-1.24s3.71.41,5.24,1.24c1.53.83,2.72,1.97,3.59,3.41ZM166.2,32.68c0-1.23-.24-2.29-.73-3.18-.49-.89-1.15-1.57-2.01-2.04-.85-.47-1.81-.71-2.88-.71s-2.05.24-2.9.71c-.84.47-1.51,1.15-2.01,2.04-.5.89-.75,1.95-.75,3.18s.25,2.26.75,3.16c.5.9,1.17,1.59,2.01,2.06.84.47,1.79.71,2.86.71s2.06-.24,2.91-.71c.85-.47,1.52-1.16,2.01-2.06.48-.9.73-1.95.73-3.16ZM189.78,23.87c-1.2-.59-2.55-.89-4.07-.89-1.66,0-3.12.33-4.39.98-.86.44-1.57,1.02-2.15,1.72v-2.48h-4.23v18.97h4.44v-9.59c0-1.28.22-2.34.66-3.18.44-.84,1.06-1.47,1.87-1.9.8-.43,1.73-.64,2.77-.64,1.42,0,2.53.41,3.32,1.24.79.83,1.19,2.08,1.19,3.77v10.3h4.44v-10.87c0-1.92-.34-3.49-1.03-4.71-.69-1.22-1.63-2.13-2.82-2.72ZM206.95,38.75c-.83,0-1.47-.25-1.94-.75-.46-.5-.69-1.2-.69-2.1v-9.02h5.08v-3.55h-5.08v-4.33h-4.44v4.33h-3.13v3.55h3.13v9.13c0,2.11.57,3.7,1.71,4.78,1.14,1.08,2.75,1.62,4.83,1.62.8,0,1.59-.11,2.34-.32.76-.21,1.4-.53,1.92-.96l-1.24-3.16c-.66.52-1.49.78-2.49.78ZM218.57,25.97v-2.78h-4.23v18.97h4.44v-9.2c0-1.94.5-3.4,1.49-4.39.99-.98,2.33-1.47,4.01-1.47.17,0,.33,0,.5.02.17.01.34.04.53.09v-4.23c-1.82,0-3.35.33-4.56.99-.91.49-1.64,1.16-2.18,2ZM246.26,27.63c.86,1.45,1.3,3.13,1.3,5.04s-.43,3.54-1.3,5.01c-.87,1.47-2.06,2.62-3.59,3.46-1.53.84-3.27,1.26-5.24,1.26s-3.67-.42-5.19-1.26c-1.52-.84-2.71-1.99-3.59-3.46-.88-1.47-1.31-3.14-1.31-5.01s.44-3.57,1.31-5.03c.88-1.46,2.07-2.6,3.59-3.43,1.52-.83,3.24-1.24,5.19-1.24s3.71.41,5.24,1.24c1.53.83,2.72,1.97,3.59,3.41ZM243.08,32.68c0-1.23-.24-2.29-.73-3.18-.49-.89-1.15-1.57-2.01-2.04-.85-.47-1.81-.71-2.88-.71s-2.05.24-2.9.71c-.84.47-1.51,1.15-2.01,2.04-.5.89-.75,1.95-.75,3.18s.25,2.26.75,3.16c.5.9,1.17,1.59,2.01,2.06.84.47,1.79.71,2.86.71s2.06-.24,2.91-.71c.85-.47,1.52-1.16,2.01-2.06.48-.9.73-1.95.73-3.16ZM251.82,15.8v26.36h4.44V15.8h-4.44Z"/>
  <g>
    <path class="cls-2" d="M10.62,16.67v26.54c0,3.51,2.86,6.37,6.37,6.37h26.53c3.51,0,6.37-2.86,6.37-6.37v-24.41c-.36.06-.73.1-1.11.1-3.73,0-6.76-3.03-6.76-6.76,0-.64.1-1.26.26-1.84h-25.29c-3.51,0-6.37,2.86-6.37,6.37ZM39.5,23.27v-4.34c0-.64.52-1.16,1.16-1.16s1.16.52,1.16,1.16v4.34c.95.44,1.61,1.4,1.61,2.52s-.66,2.08-1.61,2.52v12.66c0,.64-.52,1.16-1.16,1.16s-1.16-.52-1.16-1.16v-12.66c-.95-.44-1.61-1.4-1.61-2.52s.66-2.08,1.61-2.52ZM29.1,27.43v-11.27c0-.64.52-1.16,1.16-1.16s1.16.52,1.16,1.16v11.27c.95.44,1.61,1.4,1.61,2.52s-.66,2.08-1.61,2.52v11.27c0,.64-.52,1.16-1.16,1.16s-1.16-.52-1.16-1.16v-11.27c-.95-.44-1.61-1.4-1.61-2.52s.66-2.08,1.61-2.52ZM18.71,31.59v-12.66c0-.64.52-1.16,1.16-1.16s1.16.52,1.16,1.16v12.66c.95.44,1.61,1.4,1.61,2.52s-.66,2.08-1.61,2.52v4.34c0,.64-.52,1.16-1.16,1.16s-1.16-.52-1.16-1.16v-4.34c-.95-.44-1.61-1.4-1.61-2.52s.66-2.08,1.61-2.52Z"/>
    <path class="cls-3" d="M31.42,27.43v-11.27c0-.64-.52-1.16-1.16-1.16s-1.16.52-1.16,1.16v11.27c.35-.16.74-.26,1.16-.26s.81.09,1.16.26Z"/>
    <path class="cls-3" d="M29.1,32.46v11.27c0,.64.52,1.16,1.16,1.16s1.16-.52,1.16-1.16v-11.27c-.35.16-.74.26-1.16.26s-.81-.09-1.16-.26Z"/>
    <path class="cls-3" d="M18.71,36.62v4.34c0,.64.52,1.16,1.16,1.16s1.16-.52,1.16-1.16v-4.34c-.35.16-.74.26-1.16.26s-.81-.09-1.16-.26Z"/>
    <path class="cls-3" d="M21.03,31.59v-12.66c0-.64-.52-1.16-1.16-1.16s-1.16.52-1.16,1.16v12.66c.35-.16.74-.26,1.16-.26s.81.09,1.16.26Z"/>
    <path class="cls-3" d="M39.5,28.3v12.66c0,.64.52,1.16,1.16,1.16s1.16-.52,1.16-1.16v-12.66c-.35.16-.74.26-1.16.26s-.81-.09-1.16-.26Z"/>
    <path class="cls-3" d="M41.81,23.27v-4.34c0-.64-.52-1.16-1.16-1.16s-1.16.52-1.16,1.16v4.34c.35-.16.74-.26,1.16-.26s.81.09,1.16.26Z"/>
    <path class="cls-3" d="M29.1,32.46c.35.16.74.26,1.16.26s.81-.09,1.16-.26c.95-.44,1.61-1.4,1.61-2.52s-.66-2.08-1.61-2.52c-.35-.16-.74-.26-1.16-.26s-.81.09-1.16.26c-.95.44-1.61,1.4-1.61,2.52s.66,2.08,1.61,2.52Z"/>
    <path class="cls-3" d="M18.71,36.62c.35.16.74.26,1.16.26s.81-.09,1.16-.26c.95-.44,1.61-1.4,1.61-2.52s-.66-2.08-1.61-2.52c-.35-.16-.74-.26-1.16-.26s-.81.09-1.16.26c-.95.44-1.61,1.4-1.61,2.52s.66,2.08,1.61,2.52Z"/>
    <path class="cls-3" d="M39.5,28.3c.35.16.74.26,1.16.26s.81-.09,1.16-.26c.95-.44,1.61-1.4,1.61-2.52s-.66-2.08-1.61-2.52c-.35-.16-.74-.26-1.16-.26s-.81.09-1.16.26c-.95.44-1.61,1.4-1.61,2.52s.66,2.08,1.61,2.52Z"/>
    <path class="cls-1" d="M48.79,7.31c-2.67,0-4.83,2.17-4.83,4.83s2.17,4.83,4.83,4.83,4.83-2.17,4.83-4.83-2.17-4.83-4.83-4.83Z"/>
    <path class="cls-3" d="M49.9,43.22c0,3.51-2.86,6.37-6.37,6.37h-26.53c-3.51,0-6.37-2.86-6.37-6.37v-26.54c0-3.51,2.86-6.37,6.37-6.37h25.29c.29-1.02.81-1.93,1.5-2.7-.09,0-.17,0-.26,0h-26.53c-5,0-9.07,4.07-9.07,9.07v26.54c0,5,4.07,9.07,9.07,9.07h26.53c5,0,9.07-4.07,9.07-9.07v-25.49c-.8.54-1.71.92-2.7,1.08v24.41Z"/>
  </g>
</svg>