<svg xmlns="http://www.w3.org/2000/svg" width="512" height="512" viewBox="0 0 512 512" fill="none">
  <defs>
    <linearGradient id="bg" x1="84" y1="68" x2="430" y2="452" gradientUnits="userSpaceOnUse">
      <stop stop-color="#071018"/>
      <stop offset="1" stop-color="#122A42"/>
    </linearGradient>
    <radialGradient id="glowMint" cx="0" cy="0" r="1" gradientUnits="userSpaceOnUse" gradientTransform="translate(162 132) rotate(90) scale(132)">
      <stop stop-color="#8DF7D8" stop-opacity=".75"/>
      <stop offset="1" stop-color="#8DF7D8" stop-opacity="0"/>
    </radialGradient>
    <radialGradient id="glowCoral" cx="0" cy="0" r="1" gradientUnits="userSpaceOnUse" gradientTransform="translate(384 372) rotate(90) scale(144)">
      <stop stop-color="#FF915E" stop-opacity=".66"/>
      <stop offset="1" stop-color="#FF915E" stop-opacity="0"/>
    </radialGradient>
    <linearGradient id="sFill" x1="134" y1="118" x2="278" y2="332" gradientUnits="userSpaceOnUse">
      <stop stop-color="#BEFFE9"/>
      <stop offset="1" stop-color="#78B8FF"/>
    </linearGradient>
    <linearGradient id="padFill" x1="274" y1="281" x2="389" y2="409" gradientUnits="userSpaceOnUse">
      <stop stop-color="#0E1723"/>
      <stop offset="1" stop-color="#18314D"/>
    </linearGradient>
    <filter id="softGlow" x="0" y="0" width="512" height="512" filterUnits="userSpaceOnUse" color-interpolation-filters="sRGB">
      <feGaussianBlur stdDeviation="12"/>
    </filter>
  </defs>
  <rect x="18" y="18" width="476" height="476" rx="118" fill="url(#bg)"/>
  <rect x="18" y="18" width="476" height="476" rx="118" stroke="#84FFF0" stroke-opacity=".2" stroke-width="6"/>
  <circle cx="162" cy="132" r="132" fill="url(#glowMint)"/>
  <circle cx="384" cy="372" r="144" fill="url(#glowCoral)"/>
  <g filter="url(#softGlow)" opacity=".45">
    <path d="M244.8 120.5c-18.2-11.7-40-17.6-65.4-17.6-16.9 0-32.5 2.9-46.7 8.8-14.1 5.9-25.4 14.1-33.8 24.7-8.2 10.3-12.4 22.3-12.4 36 0 11.8 2.9 22.2 8.8 31.3 5.8 9 13.5 16.8 23 23.4 9.2 6.3 21.4 13.1 36.6 20.3 12.1 5.8 21.4 10.5 27.9 14.1 6.3 3.6 11.6 7.7 15.9 12.4 4.3 4.7 6.5 9.9 6.5 15.6 0 8.8-3.5 15.7-10.6 20.6-7.2 5-17.3 7.4-30.5 7.4-32.6 0-61-12-85.3-35.9l-27.4 43.7c13.7 12.3 30.2 22.1 49.4 29.4 19.3 7.2 40.3 10.9 62.9 10.9 18.5 0 35.3-3.1 50.4-9.4 15.1-6.3 27-15.3 35.9-27.1 9-11.9 13.5-25.8 13.5-41.8 0-14.1-3-26.3-9.1-36.4-6-10.2-13.8-18.9-23.2-26.2-9.5-7.4-21.9-14.7-37.2-22.1-12.1-5.6-21.4-10-27.9-13.2-6.5-3.4-11.8-7.2-15.9-11.5-4.1-4.3-6.2-9-6.2-14.1 0-7.3 3.2-13 9.7-17.1 6.4-4.3 15-6.5 25.9-6.5 23.9 0 46.8 8.5 68.5 25.6l25.6-44.4Z" fill="#79E9D2"/>
  </g>
  <path d="M244.8 120.5c-18.2-11.7-40-17.6-65.4-17.6-16.9 0-32.5 2.9-46.7 8.8-14.1 5.9-25.4 14.1-33.8 24.7-8.2 10.3-12.4 22.3-12.4 36 0 11.8 2.9 22.2 8.8 31.3 5.8 9 13.5 16.8 23 23.4 9.2 6.3 21.4 13.1 36.6 20.3 12.1 5.8 21.4 10.5 27.9 14.1 6.3 3.6 11.6 7.7 15.9 12.4 4.3 4.7 6.5 9.9 6.5 15.6 0 8.8-3.5 15.7-10.6 20.6-7.2 5-17.3 7.4-30.5 7.4-32.6 0-61-12-85.3-35.9l-27.4 43.7c13.7 12.3 30.2 22.1 49.4 29.4 19.3 7.2 40.3 10.9 62.9 10.9 18.5 0 35.3-3.1 50.4-9.4 15.1-6.3 27-15.3 35.9-27.1 9-11.9 13.5-25.8 13.5-41.8 0-14.1-3-26.3-9.1-36.4-6-10.2-13.8-18.9-23.2-26.2-9.5-7.4-21.9-14.7-37.2-22.1-12.1-5.6-21.4-10-27.9-13.2-6.5-3.4-11.8-7.2-15.9-11.5-4.1-4.3-6.2-9-6.2-14.1 0-7.3 3.2-13 9.7-17.1 6.4-4.3 15-6.5 25.9-6.5 23.9 0 46.8 8.5 68.5 25.6l25.6-44.4Z" fill="url(#sFill)" stroke="#051421" stroke-width="10"/>
  <path d="M270 270c0-7.7 6.3-14 14-14h125c40.9 0 74 33.1 74 74s-33.1 74-74 74H284c-7.7 0-14-6.3-14-14v-16.2c0-7.7 6.3-14 14-14h9.8c8.7 0 15.7-7 15.7-15.7s-7-15.7-15.7-15.7H284c-7.7 0-14-6.3-14-14V270Z" fill="url(#padFill)" stroke="#A1FFF4" stroke-opacity=".22" stroke-width="4"/>
  <path d="M329 308v46m-23-23h46" stroke="#8DFFF0" stroke-linecap="round" stroke-width="14"/>
  <circle cx="392" cy="314" r="19" fill="#FF8D57"/>
  <circle cx="430" cy="352" r="17" fill="#FF8D57"/>
  <circle cx="367" cy="357" r="14" fill="#72E7C4"/>
  <circle cx="415" cy="395" r="10" fill="#72E7C4"/>
  <path d="M275 252c18-21.4 50.4-31.4 84.8-31.4 39.7 0 69.5 15.2 87.6 44" stroke="#FF9463" stroke-linecap="round" stroke-width="8"/>
</svg>
