<?xml version="1.0" encoding="UTF-8"?>
<svg id="Capa_2" data-name="Capa 2" xmlns="http://www.w3.org/2000/svg" viewBox="0 0 35.92 39.34">
  <defs>
    <style>
      .cls-1 {
        fill: #fff;
      }
    </style>
  </defs>
  <g id="_3_barras" data-name="3 barras">
    <g>
      <path class="cls-1" d="M7.7,20.52H.86c-.47,0-.86.38-.86.86v17.1c0,.47.38.86.86.86h6.84c.47,0,.86-.38.86-.86v-17.1c0-.47-.38-.86-.86-.86Z"/>
      <path class="cls-1" d="M21.55,10.28c-.06-.01-.11-.02-.17-.02h-6.84c-.47,0-.86.38-.86.86v27.36c0,.06,0,.12.02.17.08.39.42.68.84.68h6.84c.47,0,.86-.38.86-.86V11.12c0-.41-.29-.76-.68-.84Z"/>
      <path class="cls-1" d="M35.06,0h-6.84c-.47,0-.86.38-.86.86v37.63c0,.47.38.86.86.86h6.84c.47,0,.86-.38.86-.86V.86c0-.47-.38-.86-.86-.86Z"/>
    </g>
  </g>
</svg>