<?xml version="1.0" encoding="UTF-8"?>
<svg id="Capa_2" data-name="Capa 2" xmlns="http://www.w3.org/2000/svg" viewBox="0 0 40.25 39.46">
  <defs>
    <style>
      .cls-1 {
        fill: #4172e4;
      }
    </style>
  </defs>
  <g id="No_enlazado" data-name="No enlazado">
    <g>
      <path class="cls-1" d="M40.02,6.94c-.58-2.59-2.16-4.67-4.45-5.88-3.53-1.85-8.26-1.24-11.01,1.42l-7.61,7.49h.53c1.45.05,2.79.47,4.07.91l5.21-5.05c.91-.88,1.7-1.41,2.56-1.72,1.95-.7,4.21-.14,5.62,1.39,1.01,1.1,1.51,2.51,1.42,3.99-.1,1.54-.85,3.02-2.06,4.04-.36.3-.67.61-1,.94l-5.79,5.74c-.86.86-1.68,1.68-2.66,2.45-1.21.95-2.93.66-4.03,0-.75-.46-1.34-1.02-1.92-1.55-.2-.18-.39-.37-.6-.55-.41-.38-.85-.78-1.34-1.18l-2.62,2.49c.84.91,1.74,1.69,2.69,2.52l.71.63c1.2,1.06,2.48,1.66,3.9,1.82,1.73.3,4.66-.21,5.77-1.28l7.39-7.15c.3-.29.6-.58.9-.87.96-.92,1.87-1.78,2.66-2.82,1.63-2.15,2.24-5.06,1.63-7.78Z"/>
      <path class="cls-1" d="M22.98,29.7c-1.52-.04-2.94-.38-4.55-.89-.84.75-1.63,1.55-2.4,2.32-1.11,1.13-2.26,2.29-3.58,3.3-1.35,1.03-3.09,1.36-4.76.9-1.91-.53-3.31-2.01-3.67-3.87-.33-1.75.21-3.59,1.42-4.8l4.82-4.81c1.65-1.64,3.15-3.12,4.86-4.56,1.16-.99,3.01-1.07,4.4-.22.7.43,1.24.93,1.81,1.46l1.98,1.82,2.5-2.59-2.13-2.12c-.79-.79-1.69-1.45-3.01-2.22-1.07-.48-2.22-.71-3.36-.71-1.57,0-3.11.44-4.41,1.31-.73.49-1.33,1.1-1.96,1.75-.28.29-.57.58-.87.86l-2.1,1.98-4.63,4.59c-.92.92-1.73,1.76-2.31,2.86-2.27,4.32-.64,9.92,3.55,12.22,3.69,2.02,8.25,1.33,11.34-1.72l7.06-6.89Z"/>
    </g>
  </g>
</svg>