<?xml version="1.0" encoding="UTF-8"?>
<svg id="Capa_2" data-name="Capa 2" xmlns="http://www.w3.org/2000/svg" viewBox="0 0 146 24.91">
  <defs>
    <style>
      .cls-1 {
        fill: #fff;
      }
    </style>
  </defs>
  <g id="OFFLINE_texto" data-name="OFFLINE texto">
    <g>
      <path class="cls-1" d="M24.98,12.45c0,1.78-.3,3.43-.9,4.96-.6,1.52-1.44,2.84-2.54,3.95-1.09,1.11-2.41,1.98-3.94,2.61-1.53.63-3.24.95-5.11.95s-3.57-.32-5.11-.95c-1.53-.63-2.85-1.5-3.95-2.61-1.1-1.11-1.95-2.42-2.54-3.95-.6-1.52-.9-3.17-.9-4.96s.3-3.43.9-4.95,1.45-2.83,2.54-3.94c1.1-1.11,2.41-1.98,3.95-2.61,1.54-.63,3.24-.95,5.11-.95s3.57.32,5.11.95c1.53.63,2.85,1.51,3.94,2.62,1.09,1.11,1.94,2.43,2.54,3.95s.9,3.16.9,4.93ZM19.82,12.45c0-1.28-.17-2.42-.5-3.43-.34-1.01-.82-1.88-1.45-2.59-.63-.71-1.4-1.25-2.3-1.63-.9-.38-1.92-.56-3.07-.56s-2.17.19-3.07.56c-.91.38-1.68.92-2.31,1.63-.63.71-1.12,1.57-1.45,2.59-.34,1.01-.5,2.16-.5,3.43s.17,2.44.5,3.45c.33,1.01.82,1.87,1.45,2.58.63.71,1.4,1.25,2.31,1.62.91.38,1.93.56,3.07.56s2.16-.19,3.07-.56c.9-.38,1.67-.92,2.3-1.62.63-.71,1.12-1.56,1.45-2.58.34-1.01.5-2.16.5-3.45Z"/>
      <path class="cls-1" d="M35.43,4.22v6.74h8.77v3.96h-8.77v9.73h-5.07V.27h15.52v3.95h-10.45Z"/>
      <path class="cls-1" d="M56.12,4.22v6.74h8.77v3.96h-8.77v9.73h-5.07V.27h15.52v3.95h-10.45Z"/>
      <path class="cls-1" d="M86.2,20.54v4.1h-14.46V.27h5.04v20.27h9.42Z"/>
      <path class="cls-1" d="M96.03,24.64h-5.07V.27h5.07v24.37Z"/>
      <path class="cls-1" d="M123.7.27v24.37h-2.6c-.39,0-.72-.06-.99-.19-.27-.13-.53-.35-.79-.66l-12.15-15.45c.03.39.06.78.08,1.16.02.38.02.73.02,1.06v14.09h-4.45V.27h2.66c.21,0,.39,0,.55.02.15.02.29.06.41.12s.24.14.35.24c.11.1.24.23.37.4l12.23,15.52c-.04-.43-.08-.84-.1-1.24-.02-.4-.03-.78-.03-1.13V.27h4.45Z"/>
      <path class="cls-1" d="M135.55,4.22v6.27h8.13v3.81h-8.13v6.4h10.45v3.95h-15.52V.27h15.52v3.95h-10.45Z"/>
    </g>
  </g>
</svg>