<?xml version="1.0" encoding="UTF-8"?>
<svg id="Capa_2" data-name="Capa 2" xmlns="http://www.w3.org/2000/svg" viewBox="0 0 106.84 25.41">
  <defs>
    <style>
      .cls-1 {
        fill: #fff;
      }
    </style>
  </defs>
  <g id="STATS_texto" data-name="STATS texto">
    <g>
      <path class="cls-1" d="M15.42,5.04c-.16.26-.32.45-.49.57-.17.12-.38.18-.64.18s-.52-.09-.81-.26c-.29-.18-.63-.37-1.02-.57-.39-.21-.83-.4-1.34-.57s-1.09-.27-1.77-.27c-1.19,0-2.08.27-2.67.8s-.89,1.22-.89,2.08c0,.55.16,1,.49,1.36.32.36.75.67,1.28.93s1.13.5,1.81.7c.67.2,1.37.43,2.07.68.71.25,1.4.53,2.07.86.67.33,1.28.75,1.81,1.25.53.5.96,1.12,1.28,1.84.33.73.49,1.61.49,2.65,0,1.13-.2,2.19-.59,3.18-.39.99-.96,1.85-1.7,2.59-.74.74-1.66,1.32-2.75,1.74-1.09.42-2.33.63-3.71.63-.79,0-1.57-.08-2.36-.24s-1.54-.38-2.26-.67-1.41-.63-2.05-1.03c-.64-.4-1.2-.85-1.68-1.34l1.51-2.43c.13-.18.29-.33.5-.45.2-.12.42-.18.65-.18.31,0,.63.11.98.34.34.23.74.48,1.18.75.45.27.96.52,1.55.75.59.23,1.29.34,2.11.34,1.2,0,2.13-.27,2.79-.82.66-.55.99-1.36.99-2.45,0-.63-.16-1.14-.49-1.52-.33-.39-.75-.71-1.28-.98-.52-.26-1.13-.49-1.8-.68-.68-.19-1.37-.4-2.07-.63-.71-.23-1.4-.5-2.07-.82-.67-.32-1.27-.74-1.8-1.27s-.95-1.18-1.28-1.95c-.33-.78-.49-1.74-.49-2.9,0-.93.18-1.82.55-2.69.37-.87.9-1.64,1.61-2.31.71-.67,1.58-1.22,2.61-1.63,1.03-.41,2.22-.62,3.56-.62,1.5,0,2.88.23,4.15.69,1.27.46,2.35,1.11,3.23,1.93l-1.27,2.42Z"/>
      <path class="cls-1" d="M41,4.42h-7.26v20.72h-5.16V4.42h-7.26V.27h19.69v4.15Z"/>
      <path class="cls-1" d="M66.01,25.14h-5.2s-.37-.8-.51-1.13l-1.68-4.75h-9.9l-1.68,4.75c-.11.29-.41,1.13-.41,1.13h-5.3L51.05.27h5.26l9.7,24.86ZM57.37,15.69l-2.69-7.61c-.16-.4-.33-.87-.51-1.41-.18-.54-.35-1.12-.5-1.75-.16.64-.33,1.23-.51,1.77-.18.54-.35,1.01-.51,1.41l-2.67,7.57h7.38Z"/>
      <path class="cls-1" d="M86.03,4.42h-7.26v20.72h-5.16V4.42h-7.26V.27h19.69v4.15Z"/>
      <path class="cls-1" d="M105.16,5.04c-.16.26-.32.45-.49.57-.17.12-.38.18-.64.18s-.52-.09-.81-.26c-.29-.18-.63-.37-1.02-.57-.39-.21-.83-.4-1.34-.57s-1.09-.27-1.77-.27c-1.19,0-2.08.27-2.67.8s-.89,1.22-.89,2.08c0,.55.16,1,.49,1.36.32.36.75.67,1.28.93s1.13.5,1.81.7c.67.2,1.37.43,2.07.68.71.25,1.4.53,2.07.86.67.33,1.28.75,1.81,1.25.53.5.96,1.12,1.28,1.84.33.73.49,1.61.49,2.65,0,1.13-.2,2.19-.59,3.18-.39.99-.96,1.85-1.7,2.59-.74.74-1.66,1.32-2.75,1.74-1.09.42-2.33.63-3.71.63-.79,0-1.57-.08-2.36-.24s-1.54-.38-2.26-.67-1.41-.63-2.05-1.03c-.64-.4-1.2-.85-1.68-1.34l1.51-2.43c.13-.18.29-.33.5-.45.2-.12.42-.18.65-.18.31,0,.63.11.98.34.34.23.74.48,1.18.75.45.27.96.52,1.55.75.59.23,1.29.34,2.11.34,1.2,0,2.13-.27,2.79-.82.66-.55.99-1.36.99-2.45,0-.63-.16-1.14-.49-1.52-.33-.39-.75-.71-1.28-.98s-1.13-.49-1.8-.68c-.68-.19-1.37-.4-2.07-.63-.71-.23-1.4-.5-2.07-.82-.67-.32-1.27-.74-1.8-1.27s-.95-1.18-1.28-1.95c-.33-.78-.49-1.74-.49-2.9,0-.93.18-1.82.55-2.69.37-.87.9-1.64,1.61-2.31.71-.67,1.58-1.22,2.61-1.63,1.03-.41,2.22-.62,3.56-.62,1.5,0,2.88.23,4.15.69,1.27.46,2.35,1.11,3.23,1.93l-1.27,2.42Z"/>
    </g>
  </g>
</svg>