<?xml version="1.0" encoding="UTF-8"?>
<svg id="Comunidad" xmlns="http://www.w3.org/2000/svg" viewBox="0 0 65 60">
  <defs>
    <style>
      .cls-1 {
        fill: none;
        stroke: #036cf8;
        stroke-miterlimit: 10;
        stroke-width: 2.5px;
      }
    </style>
  </defs>
  <path class="cls-1" d="M32.5,11c1.15-1.67,2.44-3.09,4-4.23,5.67-4.12,13.53-3.36,18.5,1.78,3.6,3.73,4.9,8.27,4.47,13.33-.4,4.69-2.41,8.65-5.74,11.99-5.94,5.96-11.82,11.98-17.72,17.98-.85.86-1.66,1.75-2.52,2.59-.75.73-1.26.68-2-.07-6.19-6.25-12.37-12.51-18.56-18.75-2.16-2.18-4.25-4.39-5.61-7.2-3.53-7.32-2.17-16.66,4.91-21.82,2.63-1.91,5.62-2.64,8.85-2.46,4.65.27,8.16,2.58,10.92,6.19.15.19.29.38.5.66h0Z"/>
</svg>