<?xml version="1.0" encoding="UTF-8"?>
<svg id="Guantes_activo" data-name="Guantes activo" xmlns="http://www.w3.org/2000/svg" viewBox="0 0 65 60">
  <defs>
    <style>
      .cls-1 {
        fill: #fff;
      }
    </style>
  </defs>
  <path class="cls-1" d="M46.71,56.21h-23.43c-1.79,0-3.25-1.46-3.25-3.25v-5.71c0-1.79,1.46-3.25,3.25-3.25h23.43c1.79,0,3.25,1.46,3.25,3.25v5.71c0,1.79-1.46,3.25-3.25,3.25Z"/>
  <path class="cls-1" d="M39.72,41.06c-2.24,0-4.4-.03-6.63-.06-2.44-.03-4.99-.07-7.89-.07-3.18,0-6.38-1.52-9.25-4.4-4.26-4.28-6.99-10.74-6.96-16.47.02-3.32,1.81-5.84,4.47-6.26,2.5-.4,5.49,1.27,6.35,5.25.57,2.62,1.56,4.77,2.48,5.36.23.15.38.14.51.11.41-.09.67-.23.77-.41.4-.71-.3-2.75-.91-4.54-1.56-4.55-3.92-11.44,4.42-14.8,6.08-2.45,13.77-2.49,19.58-.1,6.1,2.5,7.93,7.85,8.86,12.23h0c1.53,7.27-.64,13.06-3.22,18.22l-.1.2c-1.06,2.13-2.83,5.71-7.32,5.71-1.8.04-3.5.06-5.14.06Z"/>
</svg>