<?xml version="1.0" encoding="UTF-8"?>
<svg id="Integraciones" xmlns="http://www.w3.org/2000/svg" viewBox="0 0 65 60">
  <defs>
    <style>
      .cls-1 {
        fill: none;
        stroke: #036cf8;
        stroke-miterlimit: 10;
        stroke-width: 2.5px;
      }
    </style>
  </defs>
  <path class="cls-1" d="M57.4,46.14c0,4.94-3.92,8.83-8.63,8.83-4.94,0-8.83-3.89-8.83-8.83v-1.01l-18.67-9.02c-1.63,1.64-3.89,2.45-6.15,2.45-4.74,0-8.83-3.89-8.83-8.79s4.09-8.83,8.83-8.83c2.06,0,3.89.62,5.53,1.83l20.3-8.99v-.82c0-4.94,3.92-8.83,8.83-8.83s8.63,3.89,8.63,8.83-3.89,8.79-8.63,8.79c-2.45,0-4.51-.81-6.15-2.45l-19.91,8.83s.23,1.01.23,1.63v1.01l18.67,8.83c1.63-1.44,3.89-2.26,6.15-2.26,4.71,0,8.63,3.89,8.63,8.8h0Z"/>
</svg>