<?xml version="1.0" encoding="UTF-8"?>
<svg id="Soporte_activo" data-name="Soporte activo" xmlns="http://www.w3.org/2000/svg" viewBox="0 0 65 60">
  <defs>
    <style>
      .cls-1 {
        fill: #fff;
      }
    </style>
  </defs>
  <path class="cls-1" d="M45.8,6.53C34.48-.34,19.5,2.66,11.69,13.38c-7.6,10.43-6.08,25.35,3.44,34.05l-2.67,5.32c-.44.88-.29,2,.35,2.72.43.48,1.11.77,1.78.77.31,0,.6-.06.88-.18l8.02-3.5c12.38,4.56,26.1-.85,31.96-12.62,6-12.05,1.85-26.42-9.65-33.41ZM32.12,46.19c-1.89-.06-3.46-1.83-2.92-3.87.29-1.09,1.2-1.95,2.21-2.26,1.9-.58,3.72.82,3.92,2.64.22,1.93-1.29,3.56-3.22,3.5ZM40.02,27.55l-3.79,3.75c-2.8,2.77-.35,5.06-2.33,6.04-1.8.89-4.34.3-4.38-1.23l-.04-1.74c-.17-7.68,9.6-9.16,7.46-14.66-.7-1.8-2.37-3.09-4.32-3.26-1.6-.14-2.98.73-3.83,2.04-.7,1.07-1.01,2.29-1.3,3.52-.36,1.49-1.63,2.46-3.03,2.23-1.51-.25-2.53-1.52-2.36-3.12.15-1.35.59-2.57,1.21-3.79,1.66-3.26,4.74-5.57,8.46-5.87,3.57-.29,7.07,1.27,9.26,4.05,2.95,3.74,2.29,8.76-1.02,12.02Z"/>
</svg>