<?xml version="1.0" encoding="UTF-8"?>
<svg id="Agencias_activo" data-name="Agencias activo" xmlns="http://www.w3.org/2000/svg" viewBox="0 0 65 60">
  <defs>
    <style>
      .cls-1 {
        fill: #fff;
      }
    </style>
  </defs>
  <g>
    <path class="cls-1" d="M54.94,20.58h-9.23v12.06h9.22c3.42,0,6.2-2.71,6.2-6.03,0-1.59-.64-3.09-1.8-4.24-1.18-1.15-2.74-1.79-4.39-1.79Z"/>
    <polygon class="cls-1" points="37.07 19.29 15.05 7.1 15.05 46.13 37.07 33.94 37.07 19.29"/>
    <rect class="cls-1" x="48.55" y="41.27" width="4.63" height="12.5"/>
    <path class="cls-1" d="M9.01,33.47c-3.07-.96-5.14-3.72-5.14-6.87s2.06-5.91,5.13-6.86c.66-.21,1.03-.91.82-1.56-.21-.66-.9-1.03-1.56-.82-4.12,1.28-6.89,5-6.89,9.25s2.77,7.96,6.89,9.25c.12.04.25.06.37.06.53,0,1.03-.34,1.19-.88.21-.66-.16-1.36-.82-1.57Z"/>
    <path class="cls-1" d="M12.55,50.37l27.02-14.96v-17.6L12.55,2.85v47.52ZM15.05,7.1l22.02,12.19v14.65l-22.02,12.19V7.1Z"/>
    <path class="cls-1" d="M54.94,18.08h-11.73v17.06h12.35v-.03c4.5-.32,8.07-4.01,8.07-8.5,0-2.26-.9-4.4-2.54-6.02-1.65-1.62-3.83-2.51-6.15-2.51ZM54.93,32.63h-7.66s-.13,0-.13,0h-1.43v-12.05h9.23c1.66,0,3.22.63,4.39,1.78,1.16,1.15,1.8,2.65,1.8,4.24,0,3.32-2.78,6.02-6.2,6.02Z"/>
    <path class="cls-1" d="M53.43,38.77h-5.13c-1.24,0-2.25,1.01-2.25,2.25v13c0,1.24,1.01,2.25,2.25,2.25h5.13c1.24,0,2.25-1.01,2.25-2.25v-13c0-1.24-1.01-2.25-2.25-2.25ZM53.18,53.77h-4.63v-12.5h4.63v12.5Z"/>
  </g>
  <path class="cls-1" d="M9.88,18.61v16.07s-7.01-1.87-6.95-7.65,5.74-8.58,5.74-8.58"/>
</svg>