<?xml version="1.0" encoding="UTF-8"?>
<svg id="Capa_1" data-name="Capa 1" xmlns="http://www.w3.org/2000/svg" viewBox="0 0 65 60">
  <defs>
    <style>
      .cls-1 {
        fill: none;
        stroke: #036cf8;
        stroke-miterlimit: 10;
        stroke-width: 2.5px;
      }
    </style>
  </defs>
  <path class="cls-1" d="M56.25,24.94l-4.62-1.73-.96-2.31,1.88-4.44c.24-.56,1.03-2.51.58-2.95l-3.92-3.85c-.33-.32-.72-.45-1.18-.33-.64.17-1.25.39-1.87.65l-4.62,2-2.37-.96-2-4.73c-.27-.63-.57-1.21-.95-1.77-.18-.26-.43-.44-.77-.44h-5.54c-.39,0-.66.18-.87.51-.4.62-.71,1.27-.98,1.97l-1.76,4.48-2.34.97-3.43-1.4c-1.05-.43-2.05-.81-3.15-1.1-.34-.09-.79-.11-1.07.16l-4.1,4.01c-.42.41.26,2.06.49,2.55l2.13,4.71-.95,2.3-4.94,2c-.64.26-1.22.55-1.78.93-.26.18-.39.43-.39.75v5.57c0,.66,1.49,1.26,2.04,1.47l5.09,1.93.95,2.27-2.07,4.94c-.21.49-.81,2.07-.4,2.47l4.06,3.97c.29.28.71.3,1.08.2.76-.21,1.45-.47,2.17-.78l4.3-1.87,2.36.96c.66,1.57,2.1,5.34,2.99,6.54.17.23.4.39.71.39h5.66c.31,0,.54-.15.7-.39.88-1.23,2.19-4.97,2.81-6.57l2.38-.96,4.5,1.83c.7.28,1.39.51,2.11.69.48.12.86-.03,1.2-.36l3.92-3.86c.45-.44-.41-2.27-.62-2.82l-2.02-4.42.97-2.31c1.75-.69,3.44-1.33,5.13-2.09.5-.23,1.95-.84,1.95-1.42v-5.86c-.01-.57-1.99-1.35-2.49-1.54ZM38.97,35.81c-3.78,3.6-9.85,3.22-13.15-.8-2.77-3.37-2.59-8.23.41-11.39,3.6-3.79,9.7-3.72,13.2.16,3.14,3.48,2.95,8.77-.47,12.03Z"/>
</svg>