<?xml version="1.0" encoding="UTF-8"?>
<svg xmlns="http://www.w3.org/2000/svg" viewBox="0 0 65 60">
  <defs>
    <style>
      .cls-1 {
        fill: #fff;
      }

      .cls-2 {
        fill: #036cf8;
      }
    </style>
  </defs>
  <g id="Fondo_activo" data-name="Fondo activo">
    <rect class="cls-2" width="65" height="60"/>
  </g>
  <g id="Ajustes_activo" data-name="Ajustes activo">
    <path class="cls-1" d="M60.38,26.37c0-.77-.4-1.62-3.29-2.71l-4.11-1.54-.55-1.32,1.68-3.95c.98-2.29,1.07-3.59.31-4.33l-3.92-3.85c-.66-.65-1.51-.88-2.38-.64-.7.19-1.37.42-2.04.71l-4.15,1.79-1.41-.57-1.79-4.25c-.33-.77-.67-1.41-1.08-2-.44-.63-1.08-.98-1.79-.98h-5.54c-.79,0-1.48.38-1.92,1.08-.41.64-.76,1.33-1.09,2.19l-1.56,3.99-1.38.57-2.96-1.21c-1.01-.41-2.11-.84-3.3-1.15-.89-.23-1.71-.06-2.26.48l-4.1,4.01c-.47.46-.95,1.36.22,3.96l1.91,4.22-.54,1.32-4.45,1.8c-.81.33-1.45.67-2.02,1.07-.6.42-.93,1.05-.93,1.78v5.57c0,1.4,1.63,2.17,2.85,2.64l4.59,1.74.54,1.29-1.87,4.45c-1.06,2.52-.58,3.4-.12,3.85l4.06,3.97c.57.56,1.43.75,2.29.51.78-.22,1.52-.48,2.33-.84l3.82-1.66,1.39.57c.08.19.16.4.25.62.99,2.43,1.94,4.69,2.68,5.7.43.58,1.04.9,1.71.9h5.66c.69,0,1.3-.32,1.72-.91.74-1.04,1.58-3.2,2.53-5.71.08-.22.16-.44.24-.63l1.41-.57,4.03,1.63c.74.3,1.48.54,2.27.75.87.22,1.71-.02,2.38-.68l3.92-3.86c.97-.96.32-2.57-.21-3.86l-1.95-4.29.55-1.31.15-.06c1.56-.61,3.03-1.18,4.63-1.9.97-.43,2.6-1.16,2.6-2.52v-5.86ZM32.69,36.92c-2.18-.13-4.13-1.13-5.51-2.8-2.35-2.86-2.2-7.05.35-9.74,1.48-1.56,3.47-2.41,5.62-2.41.03,0,.07,0,.1,0,2.19.03,4.19.93,5.65,2.54,2.7,2.98,2.52,7.5-.41,10.29-1.57,1.5-3.63,2.25-5.81,2.12Z"/>
  </g>
</svg>