<?xml version="1.0" encoding="UTF-8"?>
<svg id="Comunidad_activo" data-name="Comunidad activo" xmlns="http://www.w3.org/2000/svg" viewBox="0 0 65 60">
  <defs>
    <style>
      .cls-1 {
        fill: #fff;
      }
    </style>
  </defs>
  <path class="cls-1" d="M32.52,56.21c-.58,0-1.23-.26-1.92-.96l-3.45-3.48c-5.03-5.09-10.07-10.18-15.11-15.26-2.27-2.28-4.42-4.58-5.84-7.54-4.03-8.36-1.8-18.19,5.3-23.38,2.74-2,6-2.9,9.65-2.69,4.49.26,8.2,2.23,11.33,6.03,1.02-1.27,2.11-2.32,3.29-3.17,6.13-4.45,14.78-3.62,20.13,1.93,3.68,3.82,5.3,8.63,4.81,14.31-.42,4.83-2.47,9.12-6.09,12.77-4.32,4.34-8.61,8.71-12.9,13.07l-4.82,4.9c-.32.32-.63.65-.94.98-.53.55-1.05,1.1-1.6,1.63-.48.46-1.1.87-1.83.87Z"/>
</svg>