<?xml version="1.0" encoding="UTF-8"?>
<svg id="Cuenta" xmlns="http://www.w3.org/2000/svg" viewBox="0 0 65 60">
  <defs>
    <style>
      .cls-1 {
        fill: #036cf8;
      }
    </style>
  </defs>
  <path class="cls-1" d="M32.5,31.59c7.95,0,13.18-6.44,13.18-14.39s-5.23-14.39-13.18-14.39-13.18,6.44-13.18,14.39,5.23,14.39,13.18,14.39ZM32.5,5.31c6.19,0,10.68,5,10.68,11.89s-4.49,11.89-10.68,11.89-10.68-5-10.68-11.89,4.49-11.89,10.68-11.89Z"/>
  <path class="cls-1" d="M40.08,32.63c-2.15,1.32-4.7,2.07-7.58,2.07s-5.43-.75-7.58-2.07c-9.46,3.01-14.33,9.59-14.33,18.87,0,4.24,6.5,5.69,21.91,5.69s21.91-1.46,21.91-5.69c0-9.28-4.87-15.86-14.33-18.87ZM32.5,54.69c-16.89,0-19.41-2-19.41-3.19,0-7.94,3.89-13.36,11.58-16.14,2.37,1.22,5,1.84,7.83,1.84s5.46-.62,7.83-1.84c7.68,2.78,11.58,8.21,11.58,16.14,0,1.19-2.52,3.19-19.41,3.19Z"/>
</svg>