<?xml version="1.0" encoding="UTF-8"?>
<svg id="Capa_1" data-name="Capa 1" xmlns="http://www.w3.org/2000/svg" viewBox="0 0 65 60">
  <defs>
    <style>
      .cls-1, .cls-2 {
        fill: #036cf8;
      }

      .cls-2 {
        stroke: #036cf8;
        stroke-miterlimit: 10;
        stroke-width: .5px;
      }
    </style>
  </defs>
  <g>
    <path class="cls-1" d="M31.42,40.05c-1.01.31-1.92,1.17-2.21,2.26-.55,2.04,1.03,3.82,2.92,3.87,1.93.06,3.44-1.57,3.22-3.5-.2-1.82-2.02-3.22-3.92-2.64Z"/>
    <path class="cls-1" d="M41.04,15.53c-2.19-2.78-5.69-4.34-9.26-4.05-3.72.3-6.81,2.6-8.46,5.87-.62,1.22-1.06,2.44-1.21,3.79-.17,1.6.84,2.87,2.36,3.12,1.4.23,2.68-.74,3.03-2.23.3-1.23.61-2.45,1.3-3.52.85-1.31,2.23-2.18,3.83-2.04,1.95.16,3.62,1.45,4.32,3.26,2.14,5.51-7.63,6.98-7.46,14.66l.04,1.74c.03,1.54,2.58,2.13,4.38,1.23,1.98-.98-.47-3.27,2.33-6.04l3.79-3.75c3.3-3.27,3.97-8.29,1.02-12.02Z"/>
  </g>
  <path class="cls-2" d="M14.6,56c-.64,0-1.25-.3-1.6-.69-.58-.65-.71-1.65-.32-2.44l2.75-5.49c-9.59-8.64-11.18-23.36-3.54-33.85C19.62,2.91,34.46-.06,45.67,6.75h0c11.39,6.92,15.5,21.14,9.56,33.08-5.85,11.75-19.43,17.06-31.74,12.46l-8.11,3.54c-.26.11-.52.16-.78.16ZM32.56,5.06c-7.31,0-14.52,3.38-19.07,9.62-7.19,9.87-5.52,23.79,3.81,31.7l.59.5-3.44,6.87c-.04.08-.01.2.02.24.02.01.08.03.13.03l8.84-3.87.38.15c11.45,4.48,24.19-.41,29.64-11.36,5.48-11.01,1.69-24.13-8.82-30.52h0c-3.75-2.28-7.93-3.37-12.09-3.37Z"/>
</svg>