<?xml version="1.0" encoding="UTF-8"?>
<svg id="Agencias" xmlns="http://www.w3.org/2000/svg" viewBox="0 0 65 60">
  <defs>
    <style>
      .cls-1 {
        fill-rule: evenodd;
      }

      .cls-1, .cls-2 {
        fill: none;
        stroke: #036cf8;
        stroke-linecap: round;
        stroke-miterlimit: 10;
        stroke-width: 2.5px;
      }
    </style>
  </defs>
  <path class="cls-1" d="M8.63,34.66c-3.5-1.09-6.01-4.3-6.01-8.06,0-3.76,2.51-6.96,6.01-8.05"/>
  <polygon class="cls-1" points="38.32 34.68 13.8 48.25 13.8 4.98 38.32 18.55 38.32 34.68"/>
  <path class="cls-1" d="M54.94,19.33c1.99,0,3.86.76,5.27,2.15,1.4,1.38,2.17,3.2,2.17,5.13,0,4.01-3.34,7.27-7.45,7.27h.63s-.04,0-.04,0h-8.25s-.06,0-.06,0h-2.74v-14.55h10.48s0,0,0,0Z"/>
  <rect class="cls-2" x="47.3" y="40.02" width="7.13" height="15" rx="1" ry="1"/>
</svg>