<?xml version="1.0" encoding="UTF-8"?>
<svg id="Comunidad" xmlns="http://www.w3.org/2000/svg" viewBox="0 0 65 60">
  <defs>
    <style>
      .cls-1 {
        fill: #036cf8;
      }
    </style>
  </defs>
  <path class="cls-1" d="M50.39,3.26c-5.68-1.23-13.32.73-17.91,7.81C28.27,4.83,21.12,1.66,14.45,3.17c-6.64,1.5-10.76,7.19-10.76,14.83,0,17.15,26.87,38.07,28.01,38.95.23.17.51.27.8.27s.57-.1.8-.27c.07-.05,7-5.41,13.92-12.85,9.35-10.06,14.1-18.84,14.1-26.1,0-5.97-2.87-12.98-10.92-14.73ZM58.74,18c0,14.43-22.38,33.21-26.24,36.35-3.86-3.13-26.24-21.92-26.24-36.35,0-6.51,3.28-11.14,8.77-12.39.95-.21,1.91-.32,2.86-.32,6.09,0,11.15,4.46,13.46,8.89.22.42.66.68,1.16.68.49,0,.93-.27,1.15-.7,3.72-7.41,10.99-9.58,16.17-8.45,5.58,1.22,8.91,5.81,8.91,12.29Z"/>
</svg>