<?xml version="1.0" encoding="UTF-8"?>
<svg id="Almacenamiento_activo" data-name="Almacenamiento activo" xmlns="http://www.w3.org/2000/svg" viewBox="0 0 65 60">
  <defs>
    <style>
      .cls-1 {
        fill: #fff;
      }
    </style>
  </defs>
  <path class="cls-1" d="M56.54,33.9c-.64-.12-1.27-.14-1.87-.08.05-.52.05-1.05,0-1.59-.33-3.85-3.22-7.14-7-7.92-1.04-.22-2.06-.25-3.03-.12-.76-6.23-6.07-11.06-12.51-11.06s-11.71,4.79-12.5,10.99c-.14,0-.28,0-.42,0-4.58,0-8.36,3.46-8.86,7.91-4.11.11-7.39,3.55-7.22,7.73s3.69,7.13,7.73,7.13h44.48c4,0,7.15-3.58,6.44-7.71-.46-2.65-2.59-4.78-5.23-5.26Z"/>
</svg>