<?xml version="1.0" encoding="UTF-8"?>
<svg id="Integraciones_activo" data-name="Integraciones activo" xmlns="http://www.w3.org/2000/svg" viewBox="0 0 65 60">
  <defs>
    <style>
      .cls-1 {
        fill: #fff;
      }
    </style>
  </defs>
  <path class="cls-1" d="M48.77,56.21c-5.65,0-10.08-4.43-10.08-10.08v-.23l-17.2-8.32c-1.73,1.41-4,2.21-6.36,2.21-5.56,0-10.08-4.51-10.08-10.04s4.52-10.08,10.08-10.08c2.05,0,3.95.56,5.66,1.65l18.92-8.38c0-5.65,4.43-10.08,10.08-10.08s9.88,4.52,9.88,10.08-4.43,10.04-9.88,10.04c-2.49,0-4.63-.75-6.39-2.23l-18.26,8.1c.04.3.07.62.07.89v.22l17.24,8.16c1.78-1.31,4.03-2.04,6.32-2.04,5.45,0,9.88,4.51,9.88,10.05s-4.43,10.08-9.88,10.08Z"/>
</svg>