<?xml version="1.0" encoding="UTF-8"?>
<svg id="Galería" xmlns="http://www.w3.org/2000/svg" viewBox="0 0 65 60">
  <defs>
    <style>
      .cls-1 {
        fill: #fff;
      }
    </style>
  </defs>
  <path class="cls-1" d="M25.65,26.42H8.4c-1.75,0-3.18-1.43-3.18-3.18V5.99c0-1.75,1.43-3.18,3.18-3.18h17.25c1.75,0,3.18,1.43,3.18,3.18v17.25c0,1.75-1.43,3.18-3.18,3.18Z"/>
  <path class="cls-1" d="M56.6,26.42h-17.25c-1.75,0-3.18-1.43-3.18-3.18V5.99c0-1.75,1.43-3.18,3.18-3.18h17.25c1.75,0,3.18,1.43,3.18,3.18v17.25c0,1.75-1.43,3.18-3.18,3.18Z"/>
  <path class="cls-1" d="M25.65,57.13H8.4c-1.75,0-3.18-1.43-3.18-3.18v-17.25c0-1.75,1.43-3.18,3.18-3.18h17.25c1.75,0,3.18,1.43,3.18,3.18v17.25c0,1.75-1.43,3.18-3.18,3.18Z"/>
  <path class="cls-1" d="M56.6,57.13h-17.25c-1.75,0-3.18-1.43-3.18-3.18v-17.25c0-1.75,1.43-3.18,3.18-3.18h17.25c1.75,0,3.18,1.43,3.18,3.18v17.25c0,1.75-1.43,3.18-3.18,3.18Z"/>
</svg>