<?xml version="1.0" encoding="UTF-8"?>
<svg id="Capa_2" data-name="Capa 2" xmlns="http://www.w3.org/2000/svg" viewBox="0 0 50.84 40.01">
  <defs>
    <style>
      .cls-1 {
        fill: #036cf8;
      }
    </style>
  </defs>
  <g id="Check">
    <path class="cls-1" d="M49.44,1.41c-1.73-1.74-4.32-1.88-6.3-.36l-23.64,25.61S11.01,15.08,7.51,11.85c-2.02-1.86-4.69-.84-6.09.55-1.39,1.38-2.1,3.8-.54,6.1l12.88,18.31c.4.56.89,1.08,1.4,1.5,1.36,1.1,3.02,1.69,4.74,1.69.26,0,.52-.01.78-.04,2-.21,3.81-1.18,5.08-2.74L49.79,7.71c1.53-1.97,1.38-4.56-.35-6.3ZM20.46,37.7c-1.4.14-2.77-.27-3.86-1.15-.36-.29-.7-.66-.98-1.05L2.76,17.21c-.87-1.29-.4-2.53.28-3.2.42-.41,1.05-.75,1.76-.75.45,0,.93.13,1.42.46l13.39,15.79L44.54,2.85c1.3-1,2.58-.53,3.29.17.71.71,1.17,1.99.18,3.27l-24,29.5c-.89,1.09-2.14,1.77-3.54,1.91Z"/>
  </g>
</svg>