<?xml version="1.0" encoding="UTF-8"?>
<svg id="Capa_2" data-name="Capa 2" xmlns="http://www.w3.org/2000/svg" viewBox="0 0 50.84 49.32">
  <defs>
    <style>
      .cls-1 {
        fill: #fff;
      }
    </style>
  </defs>
  <g id="Gestionar_activo" data-name="Gestionar activo">
    <path class="cls-1" d="M49.42,22.14L4.16.29C2.92-.3,1.69.07.86.87-.02,1.72-.24,2.92.26,4.16c0,0,11.93,13.93,14.97,19.21.52.9.47,1.74.02,2.52C12.22,31.16.3,45.06.3,45.06c-.46,1.16-.36,2.29.41,3.19.69.81,2.06,1.42,3.27.84l44.85-21.62c1.15-.56,1.93-1.32,2-2.58.05-.89-.3-2.21-1.41-2.75Z"/>
  </g>
</svg>