<?xml version="1.0" encoding="UTF-8"?>
<svg id="Capa_2" data-name="Capa 2" xmlns="http://www.w3.org/2000/svg" viewBox="0 0 50.84 49.32">
  <defs>
    <style>
      .cls-1 {
        fill: #036cf8;
      }
    </style>
  </defs>
  <g id="Gestionar">
    <path class="cls-1" d="M49.42,22.14L4.16.29c-.42-.2-.84-.29-1.25-.29-.78,0-1.5.34-2.05.87C-.02,1.72-.24,2.92.26,4.16c0,0,11.93,13.93,14.97,19.21.52.9.47,1.74.02,2.52C12.22,31.16.3,45.06.3,45.06c-.46,1.16-.36,2.29.41,3.19.5.59,1.36,1.07,2.25,1.07.34,0,.68-.07,1.02-.23l44.85-21.62c1.15-.56,1.93-1.32,2-2.58.05-.89-.3-2.21-1.41-2.75ZM48.33,24.83s-.1.16-.58.39L2.93,46.82c-.09-.02-.25-.11-.33-.19-.04-.05-.11-.12-.08-.33,2-2.34,12.03-14.19,14.88-19.16.92-1.6.91-3.38-.02-5.01C14.54,17.16,4.52,5.31,2.5,2.94c-.01-.16.05-.22.1-.26.11-.11.23-.17.32-.17.04,0,.1.02.16.05l45.18,21.81c.04.09.09.27.08.4,0,.05,0,.07,0,.08Z"/>
  </g>
</svg>