<?xml version="1.0" encoding="UTF-8"?>
<svg id="Alertas_activo" data-name="Alertas activo" xmlns="http://www.w3.org/2000/svg" viewBox="0 0 65 60">
  <defs>
    <style>
      .cls-1 {
        fill: #fff;
      }
    </style>
  </defs>
  <path class="cls-1" d="M58.55,45.77H6.47l.42-1.58c.41-1.54,1.13-2.82,2.13-3.81,4.16-4.11,6.11-9.01,6.32-15.91l.05-5.32c.08-8.41,5.09-14.66,12.75-15.93l.36-.06c2.65-.43,5.33-.43,7.98,0l.36.06c7.68,1.29,12.68,7.7,12.76,16.33l.05,5.74c.05,5.31,2.26,11.05,5.51,14.28,1.41,1.26,2.42,2.85,2.92,4.61l.45,1.59Z"/>
  <path class="cls-1" d="M39.01,48.16h-13.06s0,0,0,0c0,0,0,0,0,0h0c-.69,0-1.25.56-1.25,1.25,0,4.44,4.03,6.84,7.82,6.84,2.27,0,4.49-.88,5.93-2.34,1.21-1.22,1.83-2.78,1.81-4.52,0-.68-.57-1.23-1.25-1.23Z"/>
</svg>