<?xml version="1.0" encoding="UTF-8"?>
<svg id="Eventos_activo" data-name="Eventos activo" xmlns="http://www.w3.org/2000/svg" viewBox="0 0 65 60">
  <defs>
    <style>
      .cls-1 {
        fill: #fff;
      }
    </style>
  </defs>
  <path class="cls-1" d="M57.59,15.85H4.82v35.78c-.02,1.24.44,2.4,1.31,3.28.87.89,2.04,1.38,3.28,1.38h46.13c2.56,0,4.64-2.08,4.64-4.64V15.85h-2.59ZM17.28,30.92c.19-.58.72-.96,1.33-.96h9.58l2.96-9.11c.19-.58.72-.97,1.33-.97s1.14.39,1.33.97l2.96,9.11h9.58c.61,0,1.14.39,1.33.96.19.58-.01,1.21-.5,1.57l-7.75,5.63,2.96,9.11c.19.58-.02,1.21-.51,1.57-.49.36-1.15.36-1.65,0l-7.74-5.63-7.75,5.63c-.25.18-.53.27-.82.27s-.58-.09-.82-.27c-.49-.36-.7-.99-.51-1.57l2.96-9.11-7.75-5.63c-.49-.36-.7-.99-.51-1.57Z"/>
  <path class="cls-1" d="M55.54,2.81H9.46c-2.56,0-4.64,2.08-4.64,4.64v5.8h55.36v-5.8c0-2.56-2.08-4.64-4.64-4.64Z"/>
</svg>