<?xml version="1.0" encoding="UTF-8"?>
<svg id="Agencias_activo" data-name="Agencias activo" xmlns="http://www.w3.org/2000/svg" viewBox="0 0 65 60">
  <defs>
    <style>
      .cls-1 {
        fill: #fff;
      }
    </style>
  </defs>
  <polygon class="cls-1" points="12.55 50.37 39.57 35.41 39.57 17.81 12.55 2.85 12.55 50.37"/>
  <path class="cls-1" d="M61.09,20.59c-1.65-1.62-3.83-2.51-6.15-2.51h-11.73v17.06h12.35v-.03c4.5-.32,8.07-4.01,8.07-8.5,0-2.26-.9-4.4-2.54-6.02Z"/>
  <rect class="cls-1" x="46.05" y="38.77" width="9.63" height="17.5" rx="2.25" ry="2.25"/>
  <path class="cls-1" d="M9.88,18.61h-.01c0-.14,0-.29-.04-.44-.21-.66-.9-1.03-1.56-.82-4.12,1.28-6.89,5-6.89,9.25s2.77,7.96,6.89,9.25c.12.04.25.06.37.06.53,0,1.03-.34,1.19-.88.04-.12.04-.24.04-.36,0,0,.02,0,.02,0v-16.07Z"/>
</svg>
