<?xml version="1.0" encoding="UTF-8"?>
<svg id="Editor_activo" data-name="Editor activo" xmlns="http://www.w3.org/2000/svg" viewBox="0 0 65 60">
  <defs>
    <style>
      .cls-1 {
        fill: #fff;
      }
    </style>
  </defs>
  <path class="cls-1" d="M16.2,20.44l43.25-7.45-.86-5c-.58-3.4-3.82-5.68-7.22-5.1L10.09,10c-3.4.59-5.68,3.82-5.1,7.22l.7,4.07v29.64c0,3.45,2.8,6.25,6.25,6.25h41.89c3.45,0,6.25-2.8,6.25-6.25v-30.5H16.2ZM42.78,40.81l-14.04,7.26c-.33.17-.69.25-1.04.25-.41,0-.81-.11-1.17-.33-.68-.41-1.08-1.14-1.08-1.93v-14.77c0-.8.41-1.53,1.1-1.94s1.52-.43,2.23-.05l14.04,7.51c.74.4,1.2,1.17,1.19,2.01,0,.84-.47,1.61-1.22,1.99Z"/>
</svg>