<?xml version="1.0" encoding="UTF-8"?>
<svg id="Gaming_activo" data-name="Gaming activo" xmlns="http://www.w3.org/2000/svg" viewBox="0 0 65 60">
  <defs>
    <style>
      .cls-1 {
        fill: #fff;
      }
    </style>
  </defs>
  <path class="cls-1" d="M62.15,42.76c-.97-16.57-4.73-25.43-7.71-29.94-1.89-2.86-5.02-4.44-8.22-4.13-1.95.19-7.84,1.29-13.73,1.29s-11.78-1.1-13.73-1.29c-3.18-.31-6.33,1.27-8.22,4.13-2.98,4.51-6.73,13.36-7.71,29.94-.17,2.82.91,5.49,2.87,7.13,1.5,1.26,4,2.35,7.4.43,1.79-1.02,3.33-2.62,4.44-4.63.79-1.44,2.05-3.49,3.57-5.11,1.32-1.4,3.05-2.18,4.88-2.2l6.39-.08,6.58.08c1.83.02,3.57.81,4.88,2.2,1.53,1.62,2.78,3.67,3.57,5.11,1.11,2.01,2.64,3.62,4.44,4.63,1.33.75,2.52,1.04,3.57,1.04,1.63,0,2.92-.71,3.83-1.47,1.96-1.64,3.04-4.31,2.87-7.13ZM50.42,26.67c-1.38,0-2.5-1.12-2.5-2.5s1.12-2.5,2.5-2.5,2.5,1.12,2.5,2.5-1.12,2.5-2.5,2.5ZM36.92,24.17c0-1.38,1.12-2.5,2.5-2.5s2.5,1.12,2.5,2.5-1.12,2.5-2.5,2.5-2.5-1.12-2.5-2.5ZM44.92,16.28c1.38,0,2.5,1.12,2.5,2.5s-1.12,2.5-2.5,2.5-2.5-1.12-2.5-2.5,1.12-2.5,2.5-2.5ZM42.42,29.57c0-1.38,1.12-2.5,2.5-2.5s2.5,1.12,2.5,2.5-1.12,2.5-2.5,2.5-2.5-1.12-2.5-2.5ZM21.37,25.92v4.15c0,.96-.79,1.75-1.75,1.75s-1.75-.79-1.75-1.75v-4.15h-3.46c-.96,0-1.75-.79-1.75-1.75s.79-1.75,1.75-1.75h3.46v-4.15c0-.96.79-1.75,1.75-1.75s1.75.79,1.75,1.75v4.15h3.46c.96,0,1.75.79,1.75,1.75s-.79,1.75-1.75,1.75h-3.46Z"/>
</svg>