<?xml version="1.0" encoding="UTF-8"?>
<svg id="TTS_inactivo" data-name="TTS inactivo" xmlns="http://www.w3.org/2000/svg" viewBox="0 0 65 60">
  <defs>
    <style>
      .cls-1 {
        fill: #036cf8;
      }
    </style>
  </defs>
  <g transform="translate(-4.875 -4.5) scale(1.15)">
    <path class="cls-1" d="M32.5,2.87c-5.49,0-9.95,4.46-9.95,9.95v13.74c0,5.48,4.46,9.95,9.95,9.95s9.95-4.46,9.95-9.95v-13.74c0-5.49-4.46-9.95-9.95-9.95ZM39.54,26.55c0,3.88-3.16,7.04-7.04,7.04s-7.04-3.16-7.04-7.04v-13.74c0-3.88,3.16-7.04,7.04-7.04s7.04,3.16,7.04,7.04v13.74Z"/>
    <path class="cls-1" d="M48.6,26.95c0-.8-.65-1.45-1.45-1.45s-1.45.65-1.45,1.45c0,7.28-5.92,13.2-13.2,13.2s-13.2-5.92-13.2-13.2c0-.8-.65-1.45-1.45-1.45s-1.45.65-1.45,1.45c0,8.37,6.38,15.28,14.65,16.02v11.32h-8.52c-.8,0-1.45.65-1.45,1.45s.65,1.45,1.45,1.45h19.95c.8,0,1.45-.65,1.45-1.45s-.65-1.45-1.45-1.45h-8.52v-11.32c8.27-.74,14.65-7.65,14.65-16.02Z"/>
  </g>
</svg>
