<?xml version="1.0" encoding="UTF-8"?>
<svg id="Capa_2" data-name="Capa 2" xmlns="http://www.w3.org/2000/svg" viewBox="0 0 50.84 40.01">
  <defs>
    <style>
      .cls-1 {
        fill: #fff;
      }
    </style>
  </defs>
  <g id="Check_activo" data-name="Check activo">
    <path class="cls-1" d="M49.44,1.41c-1.73-1.74-4.32-1.88-6.3-.36l-23.64,25.61S11.01,15.08,7.51,11.85c-2.02-1.86-4.69-.84-6.09.55-1.39,1.38-2.1,3.8-.54,6.1l12.88,18.31c.4.56.89,1.08,1.4,1.5,1.36,1.1,3.02,1.69,4.74,1.69.26,0,.52-.01.78-.04,2-.21,3.81-1.18,5.08-2.74L49.79,7.71c1.53-1.97,1.38-4.56-.35-6.3Z"/>
  </g>
</svg>