<?xml version="1.0" encoding="UTF-8"?>
<svg id="Alertas" xmlns="http://www.w3.org/2000/svg" viewBox="0 0 65 60">
  <defs>
    <style>
      .cls-1 {
        fill: none;
        stroke: #036cf8;
        stroke-linecap: round;
        stroke-miterlimit: 10;
        stroke-width: 2.5px;
      }
    </style>
  </defs>
  <path class="cls-1" d="M25.95,49.41c0,3.72,3.48,5.59,6.57,5.59s6.54-1.92,6.49-5.59"/>
  <path class="cls-1" d="M54.32,40.48c-3.75-3.71-5.86-9.99-5.9-15.18l-.05-5.74c-.07-7.57-4.22-13.85-11.71-15.1l-.36-.06c-2.51-.4-5.07-.4-7.59,0l-.35.06c-7.32,1.21-11.63,7.3-11.7,14.71l-.05,5.35c-.2,6.6-1.95,12.09-6.69,16.76-.9.89-1.48,2.02-1.8,3.24h48.79c-.45-1.59-1.35-2.95-2.58-4.04Z"/>
</svg>