<?xml version="1.0" encoding="UTF-8"?>
<svg id="Almacenamiento" xmlns="http://www.w3.org/2000/svg" viewBox="0 0 65 60">
  <defs>
    <style>
      .cls-1 {
        fill: #036cf8;
      }
    </style>
  </defs>
  <path class="cls-1" d="M32.13,15.63c5.1,0,9.41,3.81,10.03,8.86l.31,2.49,2.49-.32c.27-.03.55-.05.83-.05.46,0,.92.05,1.38.14,2.67.55,4.78,2.95,5.02,5.69.03.39.03.78,0,1.16l-.27,3.01,3.01-.3c.14-.01.28-.02.42-.02.25,0,.51.02.76.07,1.61.29,2.94,1.62,3.22,3.23.21,1.23-.1,2.41-.88,3.34-.77.92-1.9,1.44-3.09,1.44H10.82c-2.63,0-4.84-1.83-5.16-4.25-.19-1.43.22-2.8,1.14-3.87.91-1.06,2.22-1.69,3.61-1.72l2.18-.06.24-2.16c.37-3.24,3.11-5.69,6.38-5.69.1,0,.2,0,.3,0l2.31.11.29-2.29c.64-5.02,4.95-8.81,10.02-8.81M32.13,13.13c-6.41,0-11.71,4.79-12.5,10.99-.14,0-.28,0-.42,0-4.58,0-8.36,3.46-8.86,7.91-4.34.11-7.75,3.94-7.17,8.42.49,3.74,3.87,6.43,7.64,6.43h44.51c4,0,7.15-3.58,6.44-7.71-.46-2.65-2.59-4.78-5.23-5.26-.41-.07-.81-.11-1.2-.11-.23,0-.45.01-.67.03.05-.52.05-1.05,0-1.59-.33-3.85-3.22-7.14-7-7.92-.64-.13-1.27-.2-1.89-.2-.39,0-.77.02-1.14.07-.76-6.23-6.07-11.06-12.51-11.06h0Z"/>
</svg>