<?xml version="1.0" encoding="UTF-8"?>
<svg id="Metas" xmlns="http://www.w3.org/2000/svg" viewBox="0 0 65 60">
  <defs>
    <style>
      .cls-1 {
        fill: #036cf8;
      }
    </style>
  </defs>
  <path class="cls-1" d="M40.82,20.9l9.91-11.78c.38-.45.49-1.11.26-1.68-.19-.48-.59-.82-1.05-.91H16.86v-2.17c0-.86-.7-1.56-1.56-1.56s-1.56.7-1.56,1.56v51.23c0,.86.7,1.56,1.56,1.56s1.56-.7,1.56-1.56v-20.31h32.82c1.24,0,1.88-1.62,1.04-2.61l-9.91-11.78ZM16.86,32.17V9.63h29.58l-8.6,10.22c-.5.6-.5,1.51,0,2.1l8.6,10.22h-29.58Z"/>
</svg>