<?xml version="1.0" encoding="UTF-8"?>
<svg id="Sonidos_inactivo" data-name="Sonidos inactivo" xmlns="http://www.w3.org/2000/svg" viewBox="0 0 65 60">
  <defs>
    <style>
      .cls-1 {
        fill: #036cf8;
      }
    </style>
  </defs>
  <path class="cls-1" d="M36.36,3.07c-.5-.32-1.13-.35-1.66-.08l-21.31,15.57H3.41c-.95,0-1.72.77-1.72,1.72v19.23c0,.95.77,1.72,1.72,1.72h9.75l21.35,15.69.1.06c.26.14.55.22.84.22s.61-.08.87-.23c.53-.31.85-.87.85-1.48V4.52c0-.6-.3-1.14-.81-1.46ZM12.1,37.78h-6.97v-15.79h6.97v15.79ZM33.73,52.26l-18.2-13.54v-17.55l18.2-13.64v44.73Z"/>
  <path class="cls-1" d="M46.92,15.92c-.32-.33-.74-.52-1.2-.53-.46-.02-.89.16-1.23.47-.33.32-.52.74-.53,1.2-.01.46.16.89.47,1.23,3.02,3.18,4.69,7.35,4.69,11.74s-1.65,8.52-4.65,11.7c-.32.33-.48.77-.47,1.23.01.46.2.88.54,1.2.32.3.74.47,1.18.47.47,0,.93-.2,1.25-.54,3.6-3.82,5.59-8.81,5.59-14.06s-2-10.28-5.63-14.1Z"/>
  <path class="cls-1" d="M54.19,7.22c-.65-.69-1.74-.72-2.43-.06-.68.65-.71,1.74-.06,2.43,5.27,5.54,8.17,12.8,8.17,20.45s-2.88,14.85-8.1,20.38c-.32.33-.48.77-.47,1.23.01.46.2.89.54,1.2.32.3.74.47,1.18.47.47,0,.93-.2,1.25-.54,5.83-6.17,9.04-14.24,9.04-22.74s-3.24-16.63-9.11-22.81Z"/>
</svg>