<?xml version="1.0" encoding="UTF-8"?>
<svg id="Capa_2" data-name="Capa 2" xmlns="http://www.w3.org/2000/svg" viewBox="0 0 39.75 41.92">
  <defs>
    <style>
      .cls-1 {
        fill: #1d1d1b;
      }
    </style>
  </defs>
  <g id="Award-Wining-Icon">
    <g>
      <path class="cls-1" d="M29.42,14.52c.63-.46.3-1.45-.47-1.45h-5.75c-.35,0-.65-.22-.76-.55l-1.78-5.47c-.24-.74-1.28-.74-1.52,0l-1.78,5.47c-.11.33-.41.55-.76.55h-5.75c-.77,0-1.1.99-.47,1.45l4.65,3.38c.28.2.4.56.29.89l-1.78,5.47c-.24.74.6,1.35,1.23.89l4.65-3.38c.28-.2.66-.2.94,0l4.65,3.38c.63.46,1.47-.16,1.23-.89l-1.78-5.47c-.11-.33.01-.69.29-.89l4.65-3.38Z"/>
      <path class="cls-1" d="M39.61,34.72l-6.47-9.97-.03.02c1.71-2.53,2.7-5.58,2.7-8.86,0-8.77-7.14-15.91-15.91-15.91S3.99,7.14,3.99,15.91c0,3.3,1.01,6.38,2.75,8.92l-.13-.08L.13,34.72c-.39.6.13,1.38.83,1.26l6.59-1.18,1.59,6.5c.17.7,1.09.85,1.49.25l6.47-9.97-.03-.02c.91.16,1.85.26,2.81.26s1.85-.1,2.74-.25h0s6.47,9.97,6.47,9.97c.39.6,1.32.45,1.49-.25l1.59-6.5,6.59,1.18c.71.13,1.23-.65.83-1.26ZM5.99,15.91c0-7.67,6.24-13.91,13.91-13.91s13.91,6.24,13.91,13.91-6.24,13.91-13.91,13.91-13.91-6.24-13.91-13.91Z"/>
    </g>
  </g>
</svg>