<?xml version="1.0" encoding="UTF-8"?>
<svg id="Capa_2" data-name="Capa 2" xmlns="http://www.w3.org/2000/svg" viewBox="0 0 51.71 51.71">
  <defs>
    <style>
      .cls-1 {
        fill: #5abf66;
        fill-rule: evenodd;
      }
    </style>
  </defs>
  <g id="discount-icon">
    <g id="Layer_1">
      <path class="cls-1" d="M27.68.77L.77,27.77c-.49.49-.77,1.15-.77,1.85,0,.7.27,1.35.76,1.85l19.47,19.48c1.02,1.02,2.67,1.02,3.69,0l27-26.92c.53-.53.81-1.26.78-2l-1.04-18.51c-.07-1.34-1.13-2.4-2.47-2.47,0,0,0,0,0,0L29.68,0c-.05,0-.1,0-.15,0-.69,0-1.35.28-1.85.77h0ZM38.72,19.88c-3.81,0-6.9-3.09-6.9-6.9,0-3.8,3.09-6.9,6.9-6.9s6.9,3.1,6.9,6.9c0,3.8-3.1,6.9-6.9,6.9h0Z"/>
    </g>
  </g>
</svg>
