<?xml version="1.0" encoding="UTF-8"?>
<svg id="Capa_2" data-name="Capa 2" xmlns="http://www.w3.org/2000/svg" viewBox="0 0 87.29 68.87">
  <defs>
    <style>
      .cls-1 {
        fill: #edcc69;
      }
    </style>
  </defs>
  <g id="Founders-Edition-Icon">
    <path class="cls-1" d="M85.47,20.08c-1.73-1.04-3.91-.6-5.08,1.11-1.1,1.61-.75,3.56.7,4.99l-20.68,20.55L44.11,8.48c2.82-.28,4.01-2.59,3.7-4.84C47.52,1.57,45.7-.09,43.44,0c-2.1.09-3.89,1.79-4.05,4.02-.15,2.12,1.36,4.07,3.82,4.53l-16.35,38.17L6.22,26.2c1.69-1.39,1.71-3.59.39-5.22-1.28-1.57-3.38-1.87-5.03-.63-1.63,1.22-2.11,3.42-.9,5.2.97,1.43,3.04,1.99,4.93,1.28l7.65,42.03h60.78s7.69-42.15,7.69-42.15c2.3.92,4.46-.01,5.19-1.65.86-1.92.21-4-1.44-4.99Z"/>
  </g>
</svg>