<?xml version="1.0" encoding="UTF-8"?>
<svg id="Capa_2" data-name="Capa 2" xmlns="http://www.w3.org/2000/svg" viewBox="0 0 142.03 164.26">
  <defs>
    <style>
      .cls-1 {
        fill: #edcc69;
      }
    </style>
  </defs>
  <g id="Founders-Edition-Hexagonal-Icon">
    <g>
      <path class="cls-1" d="M136.06,37.24L78.29,1.85c-3.98-2.44-8.94-2.47-12.95-.07L6.08,37.24c-3.75,2.25-6.08,6.35-6.08,10.73v68.84c0,4.41,2.36,8.53,6.15,10.77l59.26,34.94c1.96,1.16,4.16,1.74,6.35,1.74s4.47-.6,6.46-1.8l57.77-34.87c3.73-2.25,6.04-6.35,6.04-10.7V47.9c0-4.32-2.29-8.4-5.97-10.66ZM137.03,116.88c0,2.61-1.39,5.07-3.62,6.42l-57.77,34.87c-2.36,1.43-5.31,1.44-7.69.04L8.69,123.27c-2.28-1.34-3.69-3.82-3.69-6.46V47.97c0-2.62,1.4-5.09,3.65-6.44L67.91,6.07c1.19-.71,2.52-1.07,3.85-1.07s2.71.37,3.92,1.11l57.77,35.39c2.21,1.35,3.58,3.8,3.58,6.4v68.98Z"/>
      <path class="cls-1" d="M113.65,63.91c-1.73-1.04-3.91-.6-5.08,1.11-1.1,1.61-.75,3.56.7,4.99l-20.68,20.55-16.29-38.25c2.82-.28,4.01-2.59,3.7-4.84-.29-2.07-2.12-3.73-4.38-3.64-2.1.09-3.89,1.79-4.05,4.02-.15,2.12,1.36,4.07,3.82,4.53l-16.35,38.17-20.64-20.52c1.69-1.39,1.71-3.59.39-5.22-1.28-1.57-3.38-1.87-5.03-.63-1.63,1.22-2.11,3.42-.9,5.2.97,1.43,3.04,1.99,4.93,1.28l7.65,42.03h60.78s7.69-42.15,7.69-42.15c2.3.92,4.46-.01,5.19-1.65.86-1.92.21-4-1.44-4.99Z"/>
    </g>
  </g>
</svg>