<?xml version="1.0" encoding="UTF-8"?>
<svg id="Capa_2" data-name="Capa 2" xmlns="http://www.w3.org/2000/svg" viewBox="0 0 46.34 51.71">
  <defs>
    <style>
      .cls-1 {
        fill: #3780f0;
      }
    </style>
  </defs>
  <g id="safe-icon">
    <path class="cls-1" d="M46.23,13.49L23.17,0,.11,13.49c-1.89,28.68,20.84,37.44,23.06,38.22,2.22-.79,24.95-9.54,23.06-38.22ZM34.88,20.18l-11.96,11.96s-.07.06-.11.09c-.02.04-.05.08-.08.11l-2.33,2.33c-.22.22-.59.22-.82,0l-8.11-8.11c-.22-.22-.22-.59,0-.82l2.33-2.33c.22-.22.59-.22.82,0l5.37,5.37,11.75-11.75c.22-.22.59-.22.82,0l2.33,2.33c.22.22.22.59,0,.82Z"/>
  </g>
</svg>
