<?xml version="1.0" encoding="UTF-8"?>
<svg id="Capa_2" data-name="Capa 2" xmlns="http://www.w3.org/2000/svg" viewBox="0 0 38.25 51.71">
  <defs>
    <style>
      .cls-1 {
        fill: #3780f0;
      }
    </style>
  </defs>
  <g id="secure-icon">
    <path class="cls-1" d="M36.98,22.38h-4.35s0-.02,0-.03v-8.85c0-7.45-6.06-13.5-13.5-13.5S5.63,6.06,5.63,13.5v8.85s0,.02,0,.03H1.28c-.7,0-1.28.57-1.28,1.28v26.78c0,.7.57,1.28,1.28,1.28h35.7c.7,0,1.28-.57,1.28-1.28v-26.78c0-.7-.57-1.28-1.28-1.28ZM22.44,43.25h-6.63l1.78-4.82c-1.37-.6-2.33-1.96-2.33-3.55,0-2.14,1.73-3.87,3.87-3.87s3.87,1.73,3.87,3.87c0,1.59-.96,2.95-2.33,3.55l1.78,4.82ZM27.53,22.36s0,.02,0,.03H10.73s0-.02,0-.03v-8.85c0-4.63,3.77-8.4,8.4-8.4s8.4,3.77,8.4,8.4v8.85h0Z"/>
  </g>
</svg>
