<?xml version="1.0" encoding="UTF-8"?>
<svg id="Capa_2" data-name="Capa 2" xmlns="http://www.w3.org/2000/svg" viewBox="0 0 51.81 51.71">
  <defs>
    <style>
      .cls-1 {
        fill: #f6bd32;
      }
    </style>
  </defs>
  <g id="star-icon">
    <path class="cls-1" d="M25.91,51.71l-1.23-7.94c-.27-1.72-.68-3.32-1.17-4.98-.41-1.3-.86-2.51-1.48-3.72-1.18-2.28-2.97-4.1-5.25-5.29-2.51-1.31-6.26-2.33-9.07-2.75l-7.71-1.18,8.09-1.24c1.78-.27,3.46-.71,5.17-1.25,3.76-1.18,6.74-2.96,8.64-6.49,1.44-2.67,2.19-5.86,2.76-8.86l1.24-8,1.27,8.16c.64,3.22,1.43,6.63,3.16,9.41.99,1.59,2.26,2.87,3.85,3.85,2.73,1.69,6.14,2.52,9.3,3.13l8.32,1.29-7.66,1.17c-1.93.3-3.76.75-5.62,1.33-5.83,1.83-8.58,4.82-10.29,10.66-.49,1.66-.89,3.28-1.15,5l-1.18,7.71Z"/>
  </g>
</svg>
