<?xml version="1.0" encoding="UTF-8"?>
<svg id="Interfaz_activo" data-name="Interfaz activo" xmlns="http://www.w3.org/2000/svg" viewBox="0 0 65 60">
  <defs>
    <style>
      .cls-1 {
        fill: #fff;
      }
    </style>
  </defs>
  <path class="cls-1" d="M55.36,20.58c-2.41-6.77-7.81-12.36-14.82-15.34-8.16-3.46-17.64-3.08-24.14.97-5.01,3.12-7.84,8.04-8.18,14.22-.15,2.6.57,4.84,2.07,6.48,1.68,1.84,4.27,2.87,7.48,2.98,1.8.06,2.23.79,2.37,1.02.86,1.46-.02,4.61-1.21,6.93l-.13.25c-1.18,2.29-3.95,7.64-.61,12.69,1.83,2.77,7.58,5.44,14.33,5.44.41,0,.82,0,1.24-.03,4.82-.23,13.71-2.15,19.09-12.31,4.23-7.99,5.1-16.05,2.53-23.3ZM28.67,18.16c-1.93,0-3.5-1.54-3.5-3.44s1.57-3.44,3.5-3.44,3.5,1.54,3.5,3.44-1.57,3.44-3.5,3.44ZM41.45,14.03c1.93,0,3.5,1.54,3.5,3.44s-1.57,3.44-3.5,3.44-3.5-1.54-3.5-3.44,1.57-3.44,3.5-3.44ZM40.5,44.87c-1.93,0-3.5-1.54-3.5-3.44s1.57-3.44,3.5-3.44,3.5,1.54,3.5,3.44-1.57,3.44-3.5,3.44ZM45.63,32.9c-1.93,0-3.5-1.54-3.5-3.44s1.57-3.44,3.5-3.44,3.5,1.54,3.5,3.44-1.57,3.44-3.5,3.44Z"/>
</svg>