<?xml version="1.0" encoding="UTF-8"?>
<svg id="Spotify_inactivo" data-name="Spotify inactivo" xmlns="http://www.w3.org/2000/svg" viewBox="0 0 65 60">
  <defs>
    <style>
      .cls-1 {
        fill: #036cf8;
      }
    </style>
  </defs>
  <path class="cls-1" d="M55.98,3.22c-.39-.32-.9-.46-1.42-.37l-32.24,6.02c-.82.15-1.41.87-1.41,1.7v31.93c-1.31-.91-2.88-1.41-4.53-1.41-4.4,0-7.98,3.58-7.98,7.98s3.58,7.98,7.98,7.98,7.98-3.58,7.98-7.98v-26.82l28.79-5.37v19.36c-1.31-.91-2.88-1.41-4.53-1.41-4.4,0-7.98,3.58-7.98,7.98s3.58,7.98,7.98,7.98,7.98-3.58,7.98-7.98V4.55c0-.51-.23-1-.62-1.33ZM16.38,53.59c-2.5,0-4.53-2.03-4.53-4.53s2.03-4.53,4.53-4.53,4.53,2.03,4.53,4.53-2.03,4.53-4.53,4.53ZM48.62,47.33c-2.5,0-4.53-2.03-4.53-4.53s2.03-4.53,4.53-4.53,4.53,2.03,4.53,4.53-2.03,4.53-4.53,4.53ZM53.15,13.36l-28.79,5.37v-6.73l28.79-5.37v6.73Z"/>
</svg>