<?xml version="1.0" encoding="UTF-8"?>
<svg id="Oficial" xmlns="http://www.w3.org/2000/svg" viewBox="0 0 65 60">
  <defs>
    <style>
      .cls-1 {
        fill: #4dd0e1;
      }
    </style>
  </defs>
  <path class="cls-1" d="M52.5,11.56C41.8-.04,23.4-.17,12.55,11.53c-10.14,10.93-9.47,27.83,1.03,38,10.57,10.24,27.41,10.2,37.93-.06,10.52-10.27,10.98-27.09,1-37.91ZM45.54,25.27l-12.95,12.95c-1.14,1.14-3.04,1.23-4.19.07l-8.43-8.44c-1.24-1.24-1.03-3.17.11-4.28,1.19-1.16,3.06-1.14,4.28.08l6.09,6.06,10.93-10.88c1.21-1.2,3.13-.98,4.25.17,1.12,1.15,1.15,3.05-.09,4.28Z"/>
</svg>
