<?xml version="1.0" encoding="UTF-8"?>
<svg id="Acciones" xmlns="http://www.w3.org/2000/svg" viewBox="0 0 65 60">
  <defs>
    <style>
      .cls-1 {
        fill: #fff;
      }
    </style>
  </defs>
  <path class="cls-1" d="M50.07,23.99c-.25-.61-.85-1.01-1.51-1.01h-12.88l9.25-17.68c.27-.5.25-1.12-.04-1.61-.29-.49-.83-.79-1.4-.79h-20.17c-.76,0-1.41.52-1.59,1.26l-7.04,29.74c-.12.49,0,1,.31,1.39.31.39.78.62,1.28.62h6.84l-6.98,19.02c-.26.73,0,1.52.66,1.94.27.17.58.26.88.26.42,0,.84-.17,1.15-.48l30.87-30.87c.47-.47.61-1.17.35-1.78Z"/>
</svg>