<?xml version="1.0" encoding="UTF-8"?>
<svg id="Interfaz" xmlns="http://www.w3.org/2000/svg" viewBox="0 0 65 60">
  <defs>
    <style>
      .cls-1 {
        fill: #036cf8;
      }

      .cls-2 {
        fill: none;
        stroke: #036cf8;
        stroke-miterlimit: 10;
        stroke-width: 2.5px;
      }
    </style>
  </defs>
  <path class="cls-2" d="M40.05,6.39C27.26.96,10.32,5.2,9.46,20.5c-.28,5.1,3.06,7.96,8.34,8.14,6.34.22,3.34,7.6,2.23,9.77s-3.86,7.07-.81,11.68c3.44,5.2,23.61,10.02,32.51-6.8,8.9-16.82,1.11-31.48-11.68-36.9h0Z"/>
  <path class="cls-1" d="M44.95,17.48c0-1.9-1.57-3.44-3.5-3.44s-3.5,1.54-3.5,3.44,1.57,3.44,3.5,3.44,3.5-1.54,3.5-3.44Z"/>
  <ellipse class="cls-1" cx="40.5" cy="41.43" rx="3.5" ry="3.44"/>
  <path class="cls-1" d="M28.67,11.27c-1.93,0-3.5,1.54-3.5,3.44s1.57,3.44,3.5,3.44,3.5-1.54,3.5-3.44-1.57-3.44-3.5-3.44Z"/>
  <path class="cls-1" d="M42.13,29.45c0,1.9,1.57,3.44,3.5,3.44s3.5-1.54,3.5-3.44-1.57-3.44-3.5-3.44-3.5,1.54-3.5,3.44Z"/>
</svg>