<?xml version="1.0" encoding="UTF-8"?>
<svg id="Regalo_inactivo" data-name="Regalo inactivo" xmlns="http://www.w3.org/2000/svg" viewBox="0 0 65 60">
  <defs>
    <style>
      .cls-1 {
        fill: #036cf8;
      }
    </style>
  </defs>
  <path class="cls-1" d="M59.25,13.26c-.26-.26-.6-.41-.97-.41l-9.41-.04c2.19-2.09,2.6-4.94.99-7.51-.91-1.46-2.15-2.28-3.67-2.44-3.35-.35-7.95,2.46-13.68,8.34-3.95-4.11-9.44-8.77-13.65-8.33-1.54.16-2.78.99-3.7,2.47-1.57,2.53-1.16,5.37.99,7.46l-9.44.04c-.37,0-.71.15-.97.41-.26.26-.4.61-.4.98l.06,10.43c0,.74.61,1.36,1.36,1.37.56,0,1.27.02,1.87.04l.04,29.7c0,.76.62,1.37,1.37,1.37h44.92c.76.01,1.37-.6,1.38-1.36l.04-29.76c.58,0,1.11,0,1.56,0,.1,0,.24.03.3,0,.75,0,1.36-.61,1.37-1.36l.05-10.42c0-.37-.14-.71-.4-.98ZM53.61,54.39h-18.72s0-28.35,0-28.35h18.71s0,28.35,0,28.35ZM30.12,54.38l-18.71.02v-28.37h18.71s0,28.36,0,28.36ZM47.81,9.66c-.38.81-1.18,1.4-2.24,1.67-3.29.82-6.5,1.12-10.04.94,2.14-2.35,7.23-6.96,10.32-6.58.84.1,1.45.58,1.86,1.46.42.87.45,1.76.09,2.52ZM56.88,23.26l-48.68.02-.04-7.62h48.67s.06,7.6.06,7.6ZM17.37,9.91c-.51-.67-.57-1.48-.18-2.46.33-.84.9-1.42,1.63-1.68.29-.11.6-.16.92-.16.58,0,1.2.17,1.82.5,3.02,1.59,5.54,3.53,7.9,6.09-3.53.27-10.32.04-12.1-2.29Z"/>
</svg>