<?xml version="1.0" encoding="UTF-8"?>
<svg id="Regalo" xmlns="http://www.w3.org/2000/svg" viewBox="0 0 65 60">
  <defs>
    <style>
      .cls-1 {
        fill: #fff;
      }
    </style>
  </defs>
  <polygon class="cls-1" points="11.41 26.03 11.41 54.4 30.12 54.38 30.12 26.04 11.41 26.03"/>
  <path class="cls-1" d="M45.56,11.32c1.06-.27,1.86-.86,2.24-1.67.36-.76.33-1.65-.09-2.52-.42-.88-1.03-1.35-1.86-1.46-3.1-.38-8.18,4.23-10.32,6.58,3.53.18,6.74-.12,10.04-.94Z"/>
  <path class="cls-1" d="M29.47,12.2c-2.36-2.55-4.88-4.5-7.9-6.09-.61-.33-1.24-.5-1.82-.5-.32,0-.63.05-.92.16-.73.27-1.3.85-1.63,1.68-.39.98-.34,1.79.18,2.46,1.77,2.33,8.57,2.56,12.1,2.29Z"/>
  <polygon class="cls-1" points="34.9 26.03 34.89 54.4 53.61 54.39 53.61 26.04 34.9 26.03"/>
  <polygon class="cls-1" points="8.15 15.66 8.2 23.28 56.88 23.26 56.82 15.64 8.15 15.66"/>
</svg>