<?xml version="1.0" encoding="UTF-8"?>
<svg id="Eventos" xmlns="http://www.w3.org/2000/svg" viewBox="0 0 65 60">
  <defs>
    <style>
      .cls-1 {
        fill: #036cf8;
      }
    </style>
  </defs>
  <path class="cls-1" d="M55.54,2.81H12.63h1.19-4.37c-2.56,0-4.64,2.08-4.64,4.64v44.19c-.02,1.24.44,2.4,1.31,3.28.87.89,2.04,1.38,3.28,1.38h46.13c2.56,0,4.64-2.08,4.64-4.64V7.44c0-2.56-2.08-4.64-4.64-4.64ZM7.38,7.44c0-1.12.91-2.02,2.02-2.02h4.41-1.19,42.91c1.12,0,2.02.91,2.02,2.02v5.8H7.38v-5.8ZM57.59,51.63c0,1.13-.91,2.05-2.02,2.05H9.41c-1.12,0-2.02-.91-2.02-2.02V15.85h50.21v35.78Z"/>
  <path class="cls-1" d="M23.93,48.97c-.29,0-.58-.09-.83-.27-.5-.37-.7-1.01-.49-1.6l2.95-9.08-7.75-5.63c-.5-.38-.7-1-.51-1.58.19-.57.73-.96,1.33-.96h9.58l2.96-9.11c.15-.54.67-.95,1.28-.97.62-.01,1.16.35,1.37.93l2.94,9.14h9.58c.62,0,1.16.4,1.34,1,.18.59-.05,1.22-.56,1.56l-7.7,5.6,2.96,9.11c.17.61-.04,1.22-.51,1.57-.47.34-1.12.36-1.61.03l-7.78-5.65-7.75,5.63c-.24.18-.53.27-.82.27ZM24.99,47.86l-.02.05s.01-.03.02-.05ZM23.3,46.67s-.02.01-.02.02l.02-.02ZM22.03,32.37l6.47,4.7-2.48,7.62,6.48-4.7,6.48,4.7-2.48-7.62,6.47-4.7h-8.01l-2.45-7.61-2.47,7.61h-8.01ZM45.72,30.38s-.04.03-.06.04l.06-.04Z"/>
</svg>