<?xml version="1.0" encoding="UTF-8"?>
<svg id="Perfiles" xmlns="http://www.w3.org/2000/svg" viewBox="0 0 65 60">
  <defs>
    <style>
      .cls-1 {
        fill: #036cf8;
      }
    </style>
  </defs>
  <path class="cls-1" d="M34.64,35.05c-1.31.65-2.96.65-4.28,0l-19.47-9.66-8.67,4.3c-.12.06-.19.17-.19.31s.07.25.19.31l29.3,14.54c.61.3,1.35.3,1.96,0l29.3-14.54c.12-.06.19-.17.19-.31s-.07-.25-.19-.31l-8.67-4.3-19.47,9.66Z"/>
  <path class="cls-1" d="M62.78,17.57L33.48,3.03c-.3-.15-.64-.23-.98-.23s-.68.08-.98.23L2.22,17.57c-.12.06-.19.17-.19.31s.07.25.19.31l29.3,14.54c.61.3,1.35.3,1.96,0l29.3-14.54c.12-.06.19-.17.19-.31s-.07-.25-.19-.31Z"/>
  <path class="cls-1" d="M34.64,47.18c-1.31.65-2.96.65-4.28,0l-19.47-9.66-8.67,4.3c-.12.06-.19.17-.19.31s.07.25.19.31l29.3,14.53c.61.3,1.35.3,1.96,0l29.3-14.54c.13-.06.19-.17.19-.31s-.07-.24-.19-.31h0l-8.67-4.3-19.47,9.66Z"/>
</svg>