<?xml version="1.0" encoding="UTF-8"?>
<svg id="Gaming" xmlns="http://www.w3.org/2000/svg" viewBox="0 0 65 60">
  <defs>
    <style>
      .cls-1 {
        fill: #036cf8;
      }
    </style>
  </defs>
  <path class="cls-1" d="M62.15,42.76c-.97-16.57-4.73-25.43-7.71-29.94-1.89-2.86-5.02-4.44-8.22-4.13-1.95.19-7.84,1.29-13.73,1.29s-11.78-1.1-13.73-1.29c-3.18-.31-6.33,1.27-8.22,4.13-2.98,4.51-6.73,13.36-7.71,29.94-.17,2.82.91,5.49,2.87,7.13,1.5,1.26,4,2.35,7.4.43,1.79-1.02,3.33-2.62,4.44-4.63.79-1.44,2.05-3.49,3.57-5.11,1.32-1.4,3.05-2.18,4.88-2.2l6.39-.08,6.58.08c1.83.02,3.57.81,4.88,2.2,1.53,1.62,2.78,3.67,3.57,5.11,1.11,2.01,2.64,3.62,4.44,4.63,1.33.75,2.52,1.04,3.57,1.04,1.63,0,2.92-.71,3.83-1.47,1.96-1.64,3.04-4.31,2.87-7.13ZM57.68,47.97c-1.34,1.12-2.79,1.17-4.57.17-1.39-.79-2.59-2.05-3.48-3.66-.86-1.56-2.24-3.8-3.94-5.61-1.79-1.9-4.15-2.96-6.67-2.99l-6.43-.08-6.62.08c-2.52.03-4.89,1.09-6.67,2.99-1.7,1.81-3.08,4.05-3.94,5.61-.88,1.61-2.09,2.88-3.48,3.66-1.78,1.01-3.23.95-4.57-.17-1.34-1.12-2.1-3.06-1.98-5.06.94-16.02,4.48-24.45,7.29-28.71,1.4-2.12,3.6-3.24,5.89-3.02,2.33.23,8.67,1.39,13.89,1.41,6.16.02,11.29-1.14,14.06-1.41,2.28-.23,4.49.9,5.89,3.02,2.81,4.25,6.36,12.69,7.29,28.71.12,2-.64,3.94-1.98,5.06Z"/>
  <path class="cls-1" d="M24.83,22.42h-3.46v-4.15c0-.96-.79-1.75-1.75-1.75s-1.75.79-1.75,1.75v4.15h-3.46c-.96,0-1.75.79-1.75,1.75s.79,1.75,1.75,1.75h3.46v4.15c0,.96.79,1.75,1.75,1.75s1.75-.79,1.75-1.75v-4.15h3.46c.96,0,1.75-.79,1.75-1.75s-.79-1.75-1.75-1.75Z"/>
  <path class="cls-1" d="M44.92,27.08c-1.38,0-2.5,1.12-2.5,2.5s1.12,2.5,2.5,2.5,2.5-1.12,2.5-2.5-1.12-2.5-2.5-2.5Z"/>
  <path class="cls-1" d="M44.92,16.28c-1.38,0-2.5,1.12-2.5,2.5s1.12,2.5,2.5,2.5,2.5-1.12,2.5-2.5-1.12-2.5-2.5-2.5Z"/>
  <path class="cls-1" d="M39.41,21.68c-1.38,0-2.5,1.12-2.5,2.5s1.12,2.5,2.5,2.5,2.5-1.12,2.5-2.5-1.12-2.5-2.5-2.5Z"/>
  <path class="cls-1" d="M50.42,21.68c-1.38,0-2.5,1.12-2.5,2.5s1.12,2.5,2.5,2.5,2.5-1.12,2.5-2.5-1.12-2.5-2.5-2.5Z"/>
</svg>