<?xml version="1.0" encoding="UTF-8"?>
<svg id="Galería_inactivo" data-name="Galería inactivo" xmlns="http://www.w3.org/2000/svg" viewBox="0 0 65 60">
  <defs>
    <style>
      .cls-1 {
        fill: #036cf8;
      }
    </style>
  </defs>
  <path class="cls-1" d="M26.44,27.37H8.5c-1.82,0-3.31-1.48-3.31-3.31V6.12c0-1.82,1.48-3.31,3.31-3.31h17.94c1.82,0,3.31,1.48,3.31,3.31v17.94c0,1.82-1.48,3.31-3.31,3.31ZM8.5,5.31c-.45,0-.81.36-.81.81v17.94c0,.45.36.81.81.81h17.94c.45,0,.81-.36.81-.81V6.12c0-.45-.36-.81-.81-.81H8.5Z"/>
  <path class="cls-1" d="M56.5,27.37h-17.94c-1.82,0-3.31-1.48-3.31-3.31V6.12c0-1.82,1.48-3.31,3.31-3.31h17.94c1.82,0,3.31,1.48,3.31,3.31v17.94c0,1.82-1.48,3.31-3.31,3.31ZM38.56,5.31c-.45,0-.81.36-.81.81v17.94c0,.45.36.81.81.81h17.94c.45,0,.81-.36.81-.81V6.12c0-.45-.36-.81-.81-.81h-17.94Z"/>
  <path class="cls-1" d="M26.44,57.19H8.5c-1.82,0-3.31-1.48-3.31-3.31v-17.94c0-1.82,1.48-3.31,3.31-3.31h17.94c1.82,0,3.31,1.48,3.31,3.31v17.94c0,1.82-1.48,3.31-3.31,3.31ZM8.5,35.13c-.45,0-.81.36-.81.81v17.94c0,.45.36.81.81.81h17.94c.45,0,.81-.36.81-.81v-17.94c0-.45-.36-.81-.81-.81H8.5Z"/>
  <path class="cls-1" d="M56.5,57.19h-17.94c-1.82,0-3.31-1.48-3.31-3.31v-17.94c0-1.82,1.48-3.31,3.31-3.31h17.94c1.82,0,3.31,1.48,3.31,3.31v17.94c0,1.82-1.48,3.31-3.31,3.31ZM38.56,35.13c-.45,0-.81.36-.81.81v17.94c0,.45.36.81.81.81h17.94c.45,0,.81-.36.81-.81v-17.94c0-.45-.36-.81-.81-.81h-17.94Z"/>
</svg>