<?xml version="1.0" encoding="UTF-8"?>
<svg id="Guantes" xmlns="http://www.w3.org/2000/svg" viewBox="0 0 65 60">
  <defs>
    <style>
      .cls-1 {
        fill: none;
        stroke: #036cf8;
        stroke-miterlimit: 10;
        stroke-width: 2.5px;
      }
    </style>
  </defs>
  <rect class="cls-1" x="21.28" y="45.24" width="27.43" height="9.71" rx="2" ry="2"/>
  <path class="cls-1" d="M54.28,17.13c-.93-4.43-2.75-9.13-8.11-11.33s-12.75-2.27-18.64.11c-12.43,5.01,2.26,18.32-4.47,19.82-2.35.52-3.87-3.62-4.48-6.43-.68-3.14-2.93-4.6-4.93-4.28s-3.4,2.3-3.42,5.04c-.04,8.9,7.13,19.62,14.96,19.62s12.72.23,19.67.07c3.84,0,5.28-3.16,6.3-5.21,2.68-5.39,4.5-10.79,3.11-17.41Z"/>
</svg>