<?xml version="1.0" encoding="utf-8"?>
<!-- Generator: Adobe Illustrator 26.3.1, SVG Export Plug-In . SVG Version: 6.00 Build 0)  -->
<svg version="1.1" id="Layer_1" xmlns="http://www.w3.org/2000/svg" xmlns:xlink="http://www.w3.org/1999/xlink" x="0px" y="0px"
	 viewBox="0 0 4000 1112.5" style="enable-background:new 0 0 4000 1112.5;" xml:space="preserve">
<style type="text/css">
	.st0{fill:#121212;}
	.st1{fill-rule:evenodd;clip-rule:evenodd;fill:#121212;}
	.st2{fill:#FFFFFF;}
	.st3{fill-rule:evenodd;clip-rule:evenodd;fill:#FFFFFF;}
	.st4{fill:#214CFF;}
	.st5{fill-rule:evenodd;clip-rule:evenodd;fill:#214CFF;}
</style>
<g>
	<path class="st2" d="M608.9,372.1l1.2,0.9L1051,626.4c-21.6,120.9-85.1,231.4-179,311.3c-95.4,81.2-216.9,125.9-342.2,125.9
		c-141.5,0-274.5-55.3-374.6-155.8C55.1,807.4,0,673.8,0,531.8c0-142,55.1-275.6,155.2-376.1C255.2,55.3,388.2,0,529.8,0
		c108.1,0,212.1,32.5,300.6,93.9c86.5,60,152.7,143.4,191.6,241.2c4.9,12.5,9.5,25.4,13.5,38.4l-94.2,54.8
		c-3.3-13-7.1-25.9-11.6-38.5c-60-169.7-220.8-283.8-399.9-283.8c-234,0-424.3,191.1-424.3,426c0,234.9,190.3,426,424.3,426
		c90.9,0,177.6-28.5,250.8-82.6c71.7-53,124.2-125.6,152-209.9l0.3-1.9L418.7,368v320.2L596,585.7l91.3,52.3L421.6,791.8l-94-53.7
		V318.8l93.8-54.3L608.9,372.1L608.9,372.1z"/>
	<path class="st2" d="M3289.3,103.4l97.7-56.4v178h116v85.2h-116v415c-0.1,27.7,19.6,41.6,47.6,39c23.1-2.2,68.4-7.7,68.4-7.7v83.7
		c0,0-49.2,11.8-79,11.8c-68.8,0-134.9-15.9-134.9-136.4l0.1-41.5V310.2h-97.4v-85.2h97.4L3289.3,103.4L3289.3,103.4z"/>
	<path class="st2" d="M1893.6,852l97-56V73h-97V852z"/>
	<path class="st3" d="M1643.1,644.4c-1.1,22-2.3,48.1-23.7,79c-17.6,25.4-42.8,43.4-94.8,43.4c-52,0-72.5-23.5-86.9-43
		c-25.3-34-30.6-88.9-30.6-159.2h332.6c-0.2-13.6-0.2-27.1-0.2-40.4c-0.4-94.4-0.7-181.1-43.9-239.7
		c-40.2-54.5-96.5-71.6-170.7-71.6c-74.3,0-123.7,15.1-168.1,72.4c-48.6,62.6-47.9,165.3-47.7,191.7c0,1.3,0,2.4,0,3.3
		c0,6.1,0,19.8,0,36.4c0,25.4-0.1,57.5-0.1,79.6c0,100.7,14.3,145.2,45.1,184.1c44,55.6,106.6,70.7,170.8,70.7
		c64.2,0,133.9-15.2,173.1-70.4c26.9-37.8,41.2-82.9,42.3-142.1h-96.7c-0.1,2-0.2,3.9-0.3,6L1643.1,644.4z M1424,349.1
		c18.1-36.2,46.4-52.2,99.9-52.2c53.5,0,81.8,16,99.9,52.2c18.2,36.4,18.1,108.3,18.1,129.6v1h-235.3v-3.1
		C1406.7,453,1406.5,384.4,1424,349.1L1424,349.1z"/>
	<path class="st3" d="M2328.4,212.5c40.8,0,93.3,16.3,132.9,55.5v-43.3h92.6v643.6c0,86.5-4.5,135-51.5,184.9
		c-48.6,51.6-99.2,59.3-148.6,59.3c-49.4,0-120.9-15.9-160.1-71c-26.9-37.8-41.2-83.1-41.2-142.1h96.5c2.9,39.7,7.6,59.1,22.9,81
		c17.7,25.3,49.9,41.2,81.4,41.2s65.6-17.9,84-43c18.2-24.9,19.7-63.5,18.9-114.4v-73.2c-38.2,34.3-83.5,47.8-127.8,47.8
		c-57.2,0-112.6-14.8-153.2-69.4c-28.4-38.2-41.6-81.8-41.6-180.6c0-21.6,0-53.2,0.1-78.1c0-16.3,0-29.7,0-35.8c0-0.9,0-2,0-3.3
		c-0.2-25.9-0.8-126.7,44-188.1c40.9-56.2,102.3-71,150.6-71L2328.4,212.5z M2342.8,754.3c45.4,0,78.8-25.8,95.1-64.7
		c18.2-43.7,17.9-122.9,17.8-153.9c0-2.1,0-4.1,0-5.7v-8.8c0-3,0-6.7,0.1-11.1c0.5-33.3,1.4-102.9-15.8-144.2
		c-16.2-38.9-47.7-69.1-97.1-69.1c-46.7,0-76.6,19.8-95.1,65.9c-17.2,43-17.1,80.8-16.9,141.3c0,5.5,0,11.3,0,17.2v8.8
		c0,70.8,1.3,116.9,20,163.9C2269.2,740,2296.2,754.4,2342.8,754.3L2342.8,754.3z"/>
	<path class="st3" d="M3952.7,778.6c48.2-62.6,47.5-165.4,47.3-191.8c0-1.3,0-2.4,0-3.3V480.1c0-0.9,0-2,0-3.3
		c0.2-26.3,0.8-129.1-47.3-191.8c-44-57.3-108.6-72.4-167.6-72.4c-59,0-121.6,15.1-165.7,72.4c-48.2,62.6-47.5,165.4-47.3,191.8
		c0,1.3,0,2.4,0,3.3v103.3c0,0.9,0,2,0,3.3c-0.2,26.4-0.8,129.1,47.3,191.8c44,57.3,106.7,72.3,165.7,72.3
		C3844.1,850.9,3908.6,835.9,3952.7,778.6z M3901.9,583.6c0,19.9-3.4,88.7-21,125.7c-17.2,36.2-42.2,57.1-94.8,57.1
		c-52.6,0-77.8-20.9-95.1-57.1c-17.6-37-21-105.8-21-125.7V479.5c0-19.9,3.4-88.7,21-125.7c17.2-36.2,42.5-57.1,95.1-57.1
		c52.6,0,77.5,20.9,94.8,57.1c17.6,37,21,105.8,21,125.7V583.6z"/>
	<path class="st3" d="M2905,212.6c-64.2,0-129.6,15.1-173.1,70.4c-24.2,30.7-32.7,62.9-35.4,114.3h98.6c1.5-24.2,5.5-46.7,16.9-63.6
		c17.3-25.6,50-36.9,87.8-36.9c52,0,78.9,14.4,93.3,52.1c11.6,30.4,11,75.3,10.6,100.3c0,3.7-0.1,7-0.1,9.7c0,0-44.3,0.4-60,0.7
		c-1.2,0-2.6,0-4.1,0c-49.9,0.6-259.1,3-259.1,197.9c0,129.7,73.7,193.4,174.5,193.4c74.3,0,123.4-30.5,153.8-60.6v48.5h93V433.4
		c0.5-77.1-0.5-114.5-25.7-150.1c-44.3-62.5-106.6-70.7-170.9-70.7H2905z M2873.3,766.7c-69.5,0-91.6-54.3-91.6-107
		c0-109.9,109.2-112.6,132.3-113.2h1.5c36.5-1.1,87.9-2.4,87.9-2.4s0.7,38.1,0.7,88.3S2961.2,766.7,2873.3,766.7L2873.3,766.7z"/>
</g>
</svg>
